<mxfile host="app.diagrams.net" modified="2024-01-04T19:30:54.056Z" agent="Mozilla/5.0 (Windows NT 10.0; Win64; x64; rv:121.0) Gecko/20100101 Firefox/121.0" etag="q6fYdvJgwk4-3tYRH6tC" version="22.1.16" type="device">
  <diagram id="j4uPV0m9whUeVnJ1KAPQ" name="AdminDashboard">
    <mxGraphModel dx="794" dy="367" grid="1" gridSize="10" guides="1" tooltips="1" connect="1" arrows="1" fold="1" page="1" pageScale="1" pageWidth="827" pageHeight="1169" math="0" shadow="0">
      <root>
        <mxCell id="0" />
        <mxCell id="1" parent="0" />
        <mxCell id="Ts-MEBF0U70ZsIu4FJop-1" value="" style="rounded=0;whiteSpace=wrap;html=1;" parent="1" vertex="1">
          <mxGeometry x="40" y="40" width="720" height="800" as="geometry" />
        </mxCell>
        <mxCell id="Ts-MEBF0U70ZsIu4FJop-2" value="" style="rounded=0;whiteSpace=wrap;html=1;fillColor=#000000;" parent="1" vertex="1">
          <mxGeometry x="40" y="40" width="720" height="90" as="geometry" />
        </mxCell>
        <mxCell id="Ts-MEBF0U70ZsIu4FJop-6" value="" style="shape=image;verticalLabelPosition=bottom;labelBackgroundColor=default;verticalAlign=top;aspect=fixed;imageAspect=0;image=data:image/png,iVBORw0KGgoAAAANSUhEUgAAAWoAAADpCAYAAAANi30hAAAAAXNSR0IArs4c6QAAAARnQU1BAACxjwv8YQUAAAAJcEhZcwAAFiUAABYlAUlSJPAAAHpJSURBVHhe7Z0HfBVV+vchvfdGCikEQgggSC9SpIiIUqQoIoh1Lexa1rWty7K7/l93V7a5NhYrCAoIotK79E4CpJAQ0nvvlby/ZzLP9WRy05Obe2/m+/mcOzNn2inP+Z3nzJ1i2qshpoMGDTJ3d3c3nTJlSq/IyMg6OV5FRUVFpZvoLU8JKwRXeVqMUIhQiaCioqKi0o2QR22H4IzggeCOYIlQilCAoKJiSJDjYY6gjgRVjAoy7OEITgimtra2t729vWt8fX1LBw4cmPXGG2/k+Pn5tcfoTXbu3GmamZlpUlJSYlpUVGRSVVXV28XFpTdNEdfLwsJC9OY1YH2D82EfaZn2Eddh/zaly83NrVXb5+TkaE1XU1B+5FkpT3Z21O9pJy8vT7Mt56s9KMuiLVAdyLOtQkxzW2mq7kRaqkexfAkuY04X75+VlWVXXV3tDFuzMjMzq4AtF2Badfv2bdPS0lJpW8Q1OBe2l5ZxvAbx2K/ZNGmDj0W0tL+Dg4NmPdLbqHzF9UrKysqk0FZsbGyk0FHE9NbU1DRKe1NQmXC+xDyYm5s3W1YoV805tOVBTE9z5dYe+NhtySeBPDXYnvZHG2jxGLQfBbJX2HNlfn5+0alTp6igamnnRxCqEPJDQ0MtHn300QH33XffwMDAQAsYNm10G0EbyhOLy71RwCY0RUMxqaur43W03BvLvXr3bjLdDQrbxIQOg0Tcvk3zTVYEjtcplSSktc1Q3ji92qA8MM1t1xLicdpKW89bWyvZSLswNTWV6kSZ3ubqkYH90P5SQBqkAMiQpfVU1tKMbC+VlZWWMHAbxJvh+NWw3XLsW4tlsj9pw6ZspDXpaYm22J94PiEfGlpKj7I8WwOOKc91DG3pbS2KfEvTVuRVcz5teVCsb3UdtIb25lWbhrTyWKSN0naxsbFJx44dO3H8+PEzu3btyqfIVxDiEeJmzpzp9dhjjy3EdL6rqytdBlFRUVFR0THR0dE39u3b9+XBgwc3/vTTT0nURZHXnIeQ4+TkVIxeqbYjXqWKioqKSseABtP/h6bsidPPNIRohNxly5aFzJkzZ/nUqVMXeXh4+NWA7OzshJycnDQM7SppKAkhp33o0oYp4kjopWUEdvkl910O0lhF3kcDTi4OUeq0DRtbM5SUz6cTFOfS2Xk7SEeHgl2VzxbrnC950DVKmjczM6NosrveMEu6Nn0b8zW2trYOfn5+gZjS/ywqKkbBNUDe9NGjRzft3LkzmRqiN0IarVy8ePHgBx988NEpU6Y8TEKNhlASHh6+Fa734ZKSkjJra+sautgNoTVFYyG1RxsyhQ6bSNee5cYlLeNwJNImaHwSdHwGoqdpqOI8jkETCY5rDoV4NgBpkOfqEY/dEsp9CfFcyvw0R3Np7ArEcqOylWfbRUv5bEvelOni5abqnGyJgJ1J56Br05Qe2pUEHPvdzszMrJowYUJfOBePODs7h0k7qKgYAZGRkRH79+/f+PPPP2/esWNHCjUCahHSPzXz588fvGjRomXTpk1bKnvUeXFxcX+cMWPG1ykpKTXYhBsS7dfb0dGRp9RwNI2W5h0cHDRxNjY2mnVEWVmZVgGBQGqNbw9ieoi2HFu5r0rX0Zp64fqwt7eXloni4uJeN27cqIUTETR9+vS/W1paTpVXqagYPBDqqwcOHNh45MiRzexRa2CPeurUqQ+7u7uTUOdmZ2e/6O3tvVHeREVFr4CH7QUh/xSCP1uOUlExeJRC3WCMb2VlZUKXMnhIS0PN0tJSa8w2vhagoqIHwFbpAS3VPlWMmgYGDqM3ra6uNqPrzLRMQ87y8nJqCBRUVPSOyspK8T59FRWjpIFQk0AjmEGgOZ7+uKG/26W/3FVUVFRUdE8DoSYPmrxqk19up6NboWibBtupqOgLlpaWdIlOXlJRMU4aCTUm9Bi0ZPnwpundHLSN2hJUVFRUuokGQk33qkKkG3go8vU/VahVVIwAtGcp6JrWnrM123VH+rubBkJtZWVFN3poPGgSbdm7VoVaRUVPaYv4tmVbhvdRhtbQ0j5ifFPbiPA2LW1nbDS69IEC0Igyedak3DRbH6OiomIoiKLGwia3aWmeUW7H2zK8jzKIiPtCRzTH4O2U+yi3I5rahrcTtyWUy8ZMs0KtoqJieLCocWCamm8J8Vgt7cfrxW1FAaY4pUATvL0yaEMU855CA6EmUDgNxBrzVFraS0xFRaXbEYVQ9D4pjv9zokBxtfK7vXkb3k4ZCHEbbUGE9xP/42JvmFHuK25PcZw2zoOY9qZCT6GRUCtBYalCraKix5CwscAx2oRMFDjluuYQtxXnWYg5iAIsnkPsHMR4Qts+4jY85XOI8L49AVWoVVSMABItFkLRqxWhOHorIQVxfVOCR9twoGMqPVyOE9cx4npCW/o4juMpXfQ6W+WxeBue5ynP9wQaCTUKSOu7glVUVPQTFjmlwLVEW7btCCzANGXo3CzkNK8UXVpmL523pamYZnHe2GnRo1ZRUTEMROFij1MpgEqU4sdUVVX1Kiws7JWdnd0rPT39dkZGRlVaWlp5SkpKMUJ+YmJiTlJSUlZCQkJOcnJyAUIJtqvEdrW5ubm9CgoKepWWlrZ4fkZbGiiO9+f1rcmTMdKgdFauXDlm+vTpTyDM8/DwcK+uri66cuXKn0ePHr0eqwvqt2odq1atsrz77rutsS99bNSkuLi4jr/QTV+lVtLc17s7E+W56bwUl5OTUwtjK1+yZEm5vMoYMPvvf/9rhXqwdHZ2NoWB14n510WZ0/nEetc2DwGoy8rKqjp79mzZmjVr6L3nrQZeVyCy9RFM7B45qsdB139JyMjrbA7aDm36NsqLypgCfeWjFvvepinZB7apgcBWoL2WlpWVVZSXl1fX1NRUIb4K00rsDw2vqqQfxNF77E3Nzc0trYClpTSxsrCwsIQHjYmFBerY0t7e3sra2toS5zFBfUkfHMGp6GVa5GJToqX3CWFz6eMjTYHtNdepKa8s3sZIs++j7kShNn3hhRcG33PPPXcNGzYsFJXkSBWLipQuq+C48mb1oAKkdKCStN4eSPvIs1rRto82yCDJtsTjocJNKioqeuXn5xfCCzh011137cX6NomFnmI6b968AYsWLZowbty4YW5ubo7U4ID0hW/QG/XBX+WRdiAUZS3Oa6sbWm5QN/L+mjjlsamB0TkpHYA68V7oIAvj4uIuwEs78Lvf/S5D2riVqEIt2b80RflKU22QdwvvOAdeclZeXl4mBDgD22fZ2NjkQ0iL3N3dC9GZl6IcqyHQNeg4a9AmajBfi7q6DdupRTupxX61lZWVNTgOfQqNVNMEYmyKYObg4GCKY0GjzczQ5k1wbFNHR0dTFxcXM9oG7cs6NTXVGZ2AE9LjhGM6QeQdbW1t3bCdNzTHB8GmPsXaIaGmQHZDwVjRmVAvX758xMKFC58YM2bMwxAJe1S45hqV2HgZKnQyNG3GxobYFM0ZqAhVMB1LPB5dOyPhghGVwsv76NSpU3968skni+XVBsusWbMs0VEuGDp06NNDhgwZh4ZoiQZGn7aSApU35Z3qhL0UQiwbcV5b3dCysm6U5UvzvB/H0zmpzPn8169fj0O5b4yPj//sH//4R7K0UStRhbohNFJByIe45kAEcyCChXByS2Dfhbdu3cpGGWeivDPPnTuXiTLPgmDmY7ciBF3ZvBWCE4TbecCAAY6DBg1yCg0NdcPUe/DgwT59+vRxQ306Ig+OsFdH2I4jBN8VYm9rzMKsRCnUDcYZI0aM8AkKChqOEIoKtkUjqExJSTn+6aefXsbqivqtWkUdet5KiAUdbxx6V1sMa6R3iVCgeWXgddR4lYHXNRW07aMt0LbK81I8vYEN3oAFjCJx7969544fP96myzz6yHvvvWeDBjDHx8dntpeXlyMLM+UZDVfKM5UHCaWyjJoK4nZNBeU+dD5xXixziqPzw3u7tGvXrh9gmFG5ubmSq91aVq9e7YzJHNRdcH1MzwKCXId2Wg1xq0KbK87JyYm9cePGmdOnTx86fPjwToxUtkLkvsN2+zFyOY7li2j4USdOnEhAZ5mJQ5BIt6nMOwiNVkuQnrx0EBERkQghjoEzdykgIOAE4g8ifSePHTsWAbG6BXtIg42UwmZ6w3bMqLOHo4fq7k3fY60/ohGC0U8WOtWIhISEazExMUUNcgovePS99977+N133z0fHrUHedQXLlx4Z/z48eRR59Vv1WpMIHj3oNd819XVdSg1SH0Hw7KjH3/88dq//OUvP2ORDNhgQU/sBg/lXYjySngveuuKkHeP9vrvBx988N3z589nI6rxcKsZDMmj5pELCYw2kSERokAo12vbHo25Ii0tLRpe8XVHR8dYNNnUzMzMvDNnzmTCucrElC4jNf5DyDCgj5W4Llu2zAW24YlRoQcE2js/Pz8IdT0Qnc9AT09Pb9h2/dYyXIbsfdM8lbtY5ry+qXUUiO7UrGY/xdXJ3C4qKkrBcCsSxlMqx2mMVR9Bb+7t6+s7Yt68ee5ylKFijk7SD16IpyjSbIRUB2yMuoDPSZe8KPC54QjchthkYhoHkSZRaZNIGwJc5k3RXF2wgLCI0GUNjD7y8/LyotG2jmK6+ezZs1+8884769Ap/xdCvR6Ctv2pp546CZGOo12kHQ2TSoS0jRs3Xps/f/6h4ODgzSEhIf9duXLlh7t37/4M3ubGwsLCbQUFBSdRDjcg4FJeqaxEkVbC9UHlrk2LeD2h63bSHA2EGhmkVHVaytavX58DQzoPA4uXozRGp49gaOUFgxgyd+5cQxdqZ5TzMJS7l7wsGZzY6HVphHxeEmnyoDkNFRUV5YmJidcgKolShBFCZcxlzeXA+ed1LBgUTyJDgbdhIEpVGHnEYIS7d9u2be+fOHHiVdTvHyMiIjZCuM5ik9z6LY2ayqioqGjk90c4f//CSOK1n3/++bUff/zxw+vXrx/Lzc3NYpsmW6NypXIkz5jFm8uWy1wsa9qXlnl7se66mxY9as5ge9ixY0f+yZMnT5mbm8fKUY0MUJ9wcHCwh1CHTJs2zVGOMkh+/etfewQFBQ2DsfaRoxoYG81z6E4g2kXwjC7ATm7KUUYH2bsycOMXl+nPVRYPEbpn+dq1a4cwMv0PRh9/g1B/8swzz2y/7777LowcOTLpgw8+IIEm77OnUHvu3LmiRx99NB0edjycqpOPPfbYtri4uP+i4/9TQkLChyivs+jUypSXLtjexboguC2IcVwXvNzdtKjCyACltL2prYiJiYm2tbW9Rbf0cEHpK/b29r29vLw86JIBFi3qYw2PxYsXuw8aNCgMHY+LHNXtUN1Tw6E/Ehk0glw0rkvwENt0p4chQQ2dvTNCOWXvjbcjiouLa4uKijIhNpcg0NvRka0bPnz4PyZMmPDZ6tWrj2GTNt3C2ANIXbly5V5fX98PVqxY8d7Bgwc/h3e9Iycn5wpGIhllZWVSYYtOp+g1c10QNM+X57hO9EGsWxRq9CwdEepe4eHhhRimJCGklZeX/1Ii+ot1bGxsCESuL+bbP5zoRvr37+/q5+cXbGdnR7dCSZCxsUHSPAddwI2BjJ4bC10CqaqqyhgwYEAMFg35WmqLcP4piGVPy4TYgUFYapKSkq6dPXv2q8OHD69OTEz8+xdffLEPq9KlDVSa5fjx47f27du3vbS09C9Hjx59E8sbMBKJ5rJWQvXAdknbkF3SVF8EmtGFENWhh7uJIe41DO/K5Di9BR2TOdIZtnDhwpBZs2aZy9GGhBO8ib4QaRdzc/MGlkbDOR7SsWDqCjZ6mlIasrKy8jBcjcVIKwfRhtCBtxtq+BwIUaQZEojk5OQoOAkbMP0vxHnDsmXLfsIQPwZtp1DeTKUV7N27Nxujj+hFixbt+fjjj79Ce/h3WlrahoSEhBg4i40EWFymeRZuQllP3UWLrRUJppR2KLXr1q2LRcOkPzz0/v5kVJS5l5fXgDlz5oRArA3t8ofZmDFj+sGDCMF8g05GFAsyRjZOXRgiGz+DoWVdRkbGDXg8lz/77DO977w7QlPlS+VB5UKjzIqKinxw+ty5c1+/8MIL//r973//5aZNm67Km6p0gF27dl374Ycf/gfB/uuZM2c2QbDPoLzzeHTP7YBggWZb5faiDzQQavpDQ0TMREeIjo5OcnNzu2BpaUlPQeklXCEWFhamPj4+AcOGDQseP368QQn1c889Z/XAAw+EWFtbByM/DYSa6pIFk6aUX9HD1gVsT0hDLc4b9d13312EIBn8U6DNwXbFeRcbPl0LhZeXEB4evgEd1+rLly9vPHv27NWLFy82bIgqHWLNmjW3//KXv1y/cuXKV9CiNefPn//81q1b8XS7oxJqD3yNmtuKPtCiR91JVPTr1y+hoKAgpbi4WC+NkCqGK8fJycna2dnZ59SpU27yaoMAQ2WLyZMnh7q7uw8wNTXV1C2Lg2h4NOWga+DRVFhZWcVdunSJ7vU1hveqNIloV2J5Y9RTFBsbewzh86+++urzoUOHHnjnnXfoNkX9cOGMkL/+9a8JGCnv/ec///lFcnLyxykpKT/n5uZq1JpEmuqK60iXTkxLNCvUspGR4XTYeE6fPl0MzyESBpolR+kNcj4bVAxGF+7wcgZgttmXxOgT9vb2tkFBQf1cXFy8xevT9VXYeIQkCkdXwucn6B/41NTUdHgzSVg06Kc/2wqVNdkYnJWSmzdvHv76668/XL9+/boPP/wwQt5ERQfs2LHjemJi4ocREREfoKM8mpOTk4f2Lr0wjP7UpSnrAYt3d9NAqOndCzCmThFmJdu3by86evQo3S4Trw8ZF6EGRJVDgUHFuTk4OAy55557POQofac3OkMfGxsbL6RbygiVs1jWvMwGSOhCqMVzQKQKY2JirsIWSKiNHrYtBh5cxvXr1zdiGP4hhuMHfvzxR3rfhv64bj2DumeeeaZs06ZN+1EX72NktwnedQKtoPpie2VN0EUbaYlmPerOZOvWrWUnTpy4aGlpGVlTU9NAqZWCwmiL6yrECiJQQe4DBw4cNnfuXD85Sq/x9fV1hrcaig7GVY7SIOarM8pUW3214biZCQkJJ7777rtb8rLBoq0cCDGeG3pF/at0Y7Kysr7atm3b+mefffYAVuvtfzY9gZ07dxY8+eST+//zn/98ER8f/zU863DUk/SCKq43se0wXL/a6r6r0JlQg2oIdayrq+uNysrKYjGTyiEGTbt7yGFnZ+cQHBwcOnHiRM1j2PrMfffd5+fl5XVHbW2t5ro6G5oY2EtgQ2wrXDfskRMUx0EbYjw66gx01BeAQd4XzHmhqTYb5XixfOj1shDoGxCD9WfOnPn32rVrw+VVKnrArl27wjHiX3/kyJGPMjMzr7AjSe1DWb+EWMfa1ncFLQq1aHCdQHVycnIShhk3S0pKNI+9soCIwqHLQtDWuGxtbU3c3d19HBwc6ClFvX/134QJE/p6e3vfCSHs8qcRqZ4ocJlR+XGcCMWLdUgPc6DeU+H9059mBvknIueb80xTugeaAsVzOZA9ExQHT5peTPYRRHorPLg0RBv1H6gGSM2HH36Y+Mc//nEnveQqPT39jBzfyKYJsY6V9S/ae2fSolAjMXTmTjv7gQMHEqOjoy+Ul5drbuLnjIuZ1FZAXQmdW3l+CwsL27y8PD9AYq3L0UebGTZsWJ+AgID+6GA0TyN2BWygXF9cZlxfynKkeVpXVVVF905nREZGxlZXVxvkLXmcN86fshy4oXI8NV5kOTY7O3vDwYMHN7zwwgtG+/IpYwC2mbFkyZLt4eHhmzACugab1dyhxnXOU7Z3guueQlfRoviYmZlRyn5peR1k06ZN5FFfwCw9kSahNHZapkAGrwuaOh/iTNGh0P3Ug7HYpQLYQWzJ88cIwJn+ENYFXF9iubGxaluH5aqcnJyr+/fvj3j//ffb8hEKvUHMFwWCpvzeCCXo5BOR5/W5ublfvPnmmz3h7XbGQObnn3+++9ixYxtQb9FynATVvWjjNCWaqv/OpGuProVr167l2tjYhGOI3uA2Pco43WjOdHXGlXDD48YoY4J0hkCoh65cudJWjtM3zCdMmBBQVFTkhxGATh7Q4fIRBUuJMh71WYO4y3v27Llw5swZXX5RpNPgPPGUH4ygZbJXCryupKQkNjU19TOMHrdOnTpVfYmSAbF9+/b4Dz74YPvly5d3JCUl0btopHrluuY6JrgtcP3TMsd1Ji2pYeefsVevmunTpydDWBIRqjhTXAgM91q6gs8tnhc9ZW9PT09fCHX/Z599Vi896jvuuMN20qRJd2CY1p97eF2hzWBFQ+Y4SldNTU0RyvIGhpd0W55BfiCA8sViTHnjIK4j4EUX3rx5c9f//ve/zzGUNvi7W3oi8Khvvvfee9uvXLnyQ3Z2dgbal6buWZS5vnXR7lp0W5EwssR6a+wk9u7dW3ru3LnItLS0m9X1XzKWCoCHEJRxUTB1hdjwCEqLq6urQ0hISN+hQ4day9F6xfPPP283bty4wXZ2dvSJol+UswsRjZXg+uJ4morlWFhYWAvvMik/P9+g3wDH9kFBtFeaZyoqKkpiYmL2ffHFFz9+9NFHRvv61h5A3ZEjR6KuXbu2KyIi4iQ6X+lWSrGu2Q7IBlivaFncprNoUai7gv/7v/+r3LFjx8W8vLyryKTkXYkGL2aWMq9LlA3P2tq6t7m5uce+ffv8abE+Vn+YO3euJbzq/u7u7p6Udl0jCpdYZ2K9FRcX54aHh1/56aefjOISAOdNzDMBe65JTEyMvnDhwo5//etfF+VoFcOl6vjx45ejoqK+Ki0tvQSnUo6uh+qe2hwHpT10Jt0i1DDmiq+//jrSwsIiCkNizW16YqNnb0XZ6LsKPi8XuEhJSYlzSkrKnRi669s91SaVlZUu8Pp9XFxc6GOgOofrhsuMlsm7IDgOywnwTE6uXbvWoD1qyo+YTyW5ubk30SH9iKEyvSlSfTWpEYDRfxG86b2w4d30Xn2MmDQVL+qEaBtdQWuEuqtUMgueanwB4D8RxUYu0pUFwCgLmtLCjRHpc4ZID3vooYfIq9YnnM6ePTsI6Wz0NGJXIpYNlxsFiqO6FP8UJjAqScC60+jwDPpJPM4351e01cLCwrKqqqojN2/e3PTOO++olzyMiDVr1lRBsA/GxcXtQZ036oDJJsgWKNB8V9AtHrVMbUJCQjK9zLuoqKicIsj4CW4QBMfpGjENNjY2tiEhIYMfeOABvXqcfPz48X3Rw98Jgei2bzyyaBFcXjwqofuI8/PzS8vLyxNXr15N4mXwD3qwXVCj5Hyj/CvS0tJOwY53vvnmm0b/RsCeyIsvvhhz+fLlXVlZWbH0n4scLUF2wELdVXSnUPf67rvvUmNjY8+UlZVJQ2Ju9GLvxI2hq+EGKMLLdnZ25r6+vv4DBw6kj8V2T8+hhcWLFwf6+PgMRhk5yFE6QSwnLjcKVFck0nTZiuYhYNWJiYlx58+fv7lt27aGhWuAUJ4oiLfl0bS0tDQ5MjJy+9tvv31e3lTF+KgE169du3YiLy+Pni7VQDZAdk+hq2h0ZJwU9tdIi7qkkW3YsCEVHvUZNGzNtUst59YJdF5ueOIyz9sDCI8PPGvNl727mxkzZvj1799/oLW1tXR9mtLO6e8q+BxiOTFimRHYphyeZsTGjRujtm7dapC35CnhPHKjzMnJKU9KSookOz506JD6UIsRA1tOPXz48I/V1dWX5Cip06aRI6FTodYxpchoNAw/lV5cw1CGqTGQGLBnrWu4QTLkJRYUFPjfcccdg/z9/bv9nuo+ffrYeHp69qG7PaysrHRaj1w3omcpwvWFMisxNze/+MMPP8Qai1BT3kTvqbi4OPLGjRu7UQ894bWtlGm684lGcC4YaboHBgZ6enh40CsW6H8SugRHD4Z1yx/bXc37779f+c9//vM8hPl8UVFRifIukK6ku4W6V0BAQE5GRkZidna29KciCyQ1BFEMdAWLEAWlAGE54M477xw8evRoJzmquzAdPHhwEDoOH0tLS80Lo7jsuhI6PosUX6Li83KZ8XqMQHIxAonCrN59LKI9KO0CDbUSeT2yffv2n+Lj443tlaW9V69ebXLkyBGzLVu2WDz00EPec+bMGbZkyZLxTz755LQXX3zx3t/85jdzHn300XnPPPPM3Ndff332888/P3358uWTFi5cOBbbha5atcpB3p9stNu1ppMoiY2Njbl58+Y1erEc2Tp9bIDtv6to0Kofe+yxUffcc8/j06ZNm0+eGgyxMDw8/E+jRo1aj9Vd8jWOf//735bwvB4ZMWLEr4YOHTrMxsZG87IK9qapMLhx6AJukCw4DIa3haikbenp6X9bsWLFDTla58Crd5o8efKsp59++ldhYWGTKU4UEF1AdUOdKJURjTYIWuZ5+sRRSkrKIWy3Gp1bl73WE8cPRN4/QjrukaO6DCpjgsoZnnQV7OAGbOIdtJlvpBXGge2QIUOCILQB48eP9wsNDfVwc3OzKywsdECeHTDytYUuWKMsLFEOpih/M0zrUO/VmNKwuArzVba2tkUuLi752Kc4MTExPzIyMnXXrl03MLKiR7Ibf6zQgHj88ccHQyMfnzlz5sMoG+mWXbINCkrNaC8or6sHDhzYiI5u886dO5O7vZdDr1yzd+/eK6hP+iNG87IeyjQ1CGr4NNUHUCmOgwYNCoIhd9tdFgQ8G+exY8feAW+6W28XpHppqm5ycnLSTp8+fenrr7/W+y/PtwXOb0VFRf7Vq1cPHz16NFKKMGBcXV3tN2/e3O/MmTNj4f0++NZbbz0K+3qmT58+v4GN/Q4e4yvY5imMfpdghDQHo7lpaAMTMR0H52oU5kejXUyAqN+NMGvAgAEP+Pj4LLO2tl5lYWHxmrOz88sDBw58bunSpY9t27Zt4dmzZ8fR+XBq+/oUGBafffZZUl5e3mnYQoMHuLpSp/RhOFL7008/RTk5OYVDlEvlOI033R1QgYs9I6fDzs6OPnzrhSEPXZPrNu69915HNJJQBwcHbzlKQtflJRqm0puAdx0PoT4Pr0DzlkRDR8wv8pqSkZFxGB5PrBxlkAQFBTm+9NJL0z09PV+BuP4dnuLb8BSXjxw5coqfn98AiGyHnsZFezHt27dvHwj1qClTpiyZMWPGW1j+u5eX18uvvvrqNGziXL+lQVEcHBxMHXQaXadmp9LYhZoop4ci6F0QEEHNuz/0ETRQh8zMTHrvc7d9SxGevYu/v39fDC01b8vr7vJiYyWqqqrowwvx586duxIREaHpfI0BciDoUXHYakJNTU0kvFDpGQADxOvQoUMPILyyYMGCpwMDAxfBg54ImwqGOHs6OjqiCutfGEl5ZseJA6NcJmiZtuf/l+iljjieJUTbHc5FsIeHxwQ637Jly56BjazCqIsuW+n0oa0OUodOLScxMfFWdnZ2vrI8ugJ9EepeUVFRWTExMdcKAS2TdyZ6aN2BtkJHD2qLdA2dM2dOCBa7Qx0t09PT/a2srFzpTwyR7hJrKicuK5RPXVZWVk55efmt6Ohoo3u9J+UPnnRSZGRkOAQtT442JKxeeOGFgevXr58HYf61q6vrq/B2ZwUEBLjx/wtKuH7F9qBcVsLtl8SaghI4Gu6DBg2aBa/9pX79+j33+eef3//6668HYZVOXtXbUT799NPKkydPRsNpi0eHLTmX2sqps9AboUbGM+GdXCguLtbc5tSVGW8KPhdN2YsQBRDztjAuekoxeMuWLbouP5MJEyYEw5sLg3HYyXHdVkbUELlsuFOtqKgoi4+Pv3bs2LF4LOouUbqjGr7ExZ07d5766aefDO5LNa+++uq4e++9d9WsWbOe9/X1HW9vb28l2jcLq2hPtL6lIELLtD8LNC3TPLUngm2FHA0vLy8ndBRT4fj85u67735mxYoVd9Im0gZ6zPfff19x5MgReqqaXmMrZVRZDp2J3hTIvn378q9cuXLKxsbmphylqWxdipCItoKHJ2sOb6DfuHHjfBYtWiTH6obJkyebzJw5cxCGj8Mg1DZytFQ+uiwjrhMqHy4jnmJdMTzO0xAxg/+TTRvIZ4W1tfXFzz77LHzr1q0G8wEEulVuw4YNM2fPnr0CwriInmiFSEvXn/nSBgsp1yvbFc2zuDYFbysG3o87dAoM2RBsWJp3dHS0d3NzGzZgwICHHn744WVvv/32BERrHBF9JDExsQqOZQzKUCPUhJjHzqRB6aOieqOApUDLOKkuFbICxhMFIUwoKyurpYrWJaJxEWxYyoKnT13RJ68wZPT64x//qNN/rV977TXT6dOnB9GfPEhHtzx0w/XC5aUEXlI+6vAyhNroXpgPYanDiC8X9U95M5g/SQcNGmQBx2J8cHDwr0JDQx8ICAhwl1dJkI1zfbKw0rwo3gS3Bd62uUDb0qUUFnixLdF6gpcZ2HXfYcOGzR8/fvyKN954YziitF+L0Q9up6enp/bp04eeqm4g1Mp8dQYtetRoeFSqOlHNtWvXlt68eTMhNTU1uaSkpJYyzL1xV8PGI8LnpXVksKKBYcjjk5mZORCLOhNMb29vMzQ6TLy9LC1/efiL0qOLMiLoPGJjpsDnLi8vp/deZHp6etJlj18eNTUSUOdlsM+4q1evGswDPBBny7lz506AzSwJCgqairpxZvEkmybPluA6pbpke+d40bbENtBSYNhOONA6Ph/HEbTs4eHhDbGefdddd90bGBhIt/A1/CNGv6iFw1aA9Eu3FYudWmfTolDrmN67du2KjY+PD4f3UsEVKlZ6V9HWc6Aj6evl5TV88ODBurqn2nTbtm3eKA8vekkUlQsjGrsu0FYnZKQZGRlF0dHRcfn5+Qb5zgtlGSqX4U3nhAPUQ6Ycpe/0xggsYNKkSfP79u07EyKoeaJWmTeqT2WdtqXt8f7ajkMo45rbDu2qT1hY2Ow///nPs3bs2KHXl0AKCwvLYBcFdJse0xVtUd+Eum7dunX0GsGLMBLNk5AtZZzWc2gvTRkOQfFKo4VHS8Y05OGHH9bVbUX0Uqg7cnNzG9073dG8txU+n1hmtJyXlxdz6tSpi5988onB/cnGeaLAKJeR1/S0tLRLW7duNQihhkfqMW7cuKnDhw+f6uPjI71MjPPENq1NjGm5qQfNKE5bfHPwPtr21RZH9OnTJ2zKlCn3YgQZgMW2nVCHYHRVnpqamgexvk1lSYg201nom1D3ys7OTkXPfxmGonl3gliRVAjkvVEQjY4Dx3U1GPK4wpsOmzlzpk5u2F+2bJkbvKJhGKo2EOruQFneBBkpOq/rBw8ePPX999/rvVBTukU7EvPEKJcdHR3TXVxcLhcVFRnE11u+/PLL4SNGjFji7Ozc38LCQsoI/YHHfwYTYv70CXNzczN7e/vQ69evj7WxsdG3LytpSElJKaN7qSsrKzV/LHdFmeqdUIOKfv36JWRlZSWVlZVp/VedjIyDEm1xXYGDg4MFvBRfuokfi11ejgsXLnS944476J/6Bn8EdRdsjFwPqKsKCELc4cOH6Uk9g7kbQkTZwHiZxBz5q0Y+M1544QV6F7HmzyM9xXTOnDlunp6ek2Gj4yHSDd5mp6s20lbYlhjMO6MOJj300EP0X5Bekp6eXlFSUlJAl2rlqB4j1L327NlThJ40HD1Vgxd0E1QI2oZrBFeyrgwRvb49elQamrnUx3QdEGlXDGXpkd4G908TVBZdYRytgeoCIkYjoZTc3NwURBnEk3pcZq0pN3oFb0ZGRnZsbGxGRESEvot0ryFDhjiMGzfubojHGDgS0gMkZCsU6N5lCt1lL81BHSL/uUlgVG3n5+d3x/33398Pade/BIP4+PgKjLCKkL4u/fO8RaFGZVMB6bSQduzYUQDP7ALyT3cPSLAoEcpGxkZIiPFdDQzLCr3pwLvvvpueqOrKW4nsCgoK/FxdXd1oCCvmtztQnh9lUBwdHX1t7969BvVOZm02pMwbgTZQk5mZmXrhwoW0Dz/8sPsKvpW899579HbFme7u7kPkKClPJISErtpHW+F0UTopWFtbmwQFBfmPGTNGbz7WoQQedVV5eXkpylfzbyKXc2eilx41GnzJ0aNH6SVNcWgjcmxDtDUyQozvalAhli4uLmEPPPBA6OrVqzWvZ+1kTIKDg/vCWx2AeelWQM6vrvKpDS5vAvWUmZSUdPKDDz5IkKMMBtF2CHFeoCo/Pz/l3LlzaSdOnND37yGaenl5+YaGhg6FULvJcRKUNxKRJvLY7dDojAILHf2hiRGkLfJBT0/qZaL3799fVFpaWoQ0d+lXBBoINQqGWn73tf5fuH3lypVEKyurW8XFxdLdHyRK3KiUhtZdhmcOfH19B0yaNCn4oYce6hKhXrFihcW8efNCcKqByKd0rZHKggy6u6Dzi50EPJ8MePunIdapcpRBoLQnzhcFihMEo6q6ujrlyJEj6ZGRkfp+6cP11q1bYbCXBi8NYxEU603foDKn9CnTCSGkt0NpnsTVJ5ycpDseqfPWuNFdUcYNjrhy5coxM2bMoA8HzPMA8GYLIJh/7soPBzTHvn37HoJ38Lt+/fqF2draWnCD4gqlQPMcz3G6hJ6irKio2HD69Ok35syZ0+kvIfr+++/tIRSrAgMDn+zfv7+/hYWFpNCcZxFd553SUFhYWIOGtAMe5ytDhgyhL43rFIhpuz8cwLZDQSkOYnxVVVUW6vevU6ZM+Qqr6B7x7vEMWqY3OvVRy5cvpza82MHBwZlGpJQHCgTlSdd20lq4Y1S2Y9jY0bS0tB9sbGzobiKs6t0bdVKHzug2Qv1G9WjNGI4rxrc585wu+Vy9UZZ19L8F3TudmZnpifjRQUFBY+CsuHdW+So/HNDgiPom1C+99NLoiRMnPgGPdYEboDhuQFQYXCC0zHRGIbWVgoKCPevWrfvDa6+9dhmLnepxHTx40DMgIODP9vb2K1AlmjeLNWXUuoREIDY2NjUuLu6r8vLyfy5ZsiRbXqUzOiLUBNkOlSUJmViObFMUhwaZnJiY+Ft0lFukSP3FZMOGDUuQzufDwsJG2tnZWdIrZylv9AciIeZL3xCfkiQ4jXQNGA5RMeyNXi1hivW9sS3dt1xL29IlEhkxU5p57CPNy1OOF7fVhkZUuMzovJwmpKWOhBoibY4OBIN/K/pSlSltS9t0tHz17gsvzQGPOi4rK+sCMq15nSQXglgQ4jIVFBesroAheaISh3h6enb6wy8JCQnujo6O3uittb7+UcyrrvLN50FjqcnLy4uEQV1Zv359mRRpgLDtkGBzEG2qpKSkDI1R7++dRr30Hj58uD9GoSGWlpaSvZCIkZjJ6yUxpA5WV7bSFiidnFYqe0oj1YW1tbUt7N8LvpoP2pgXHBbPPgDzvu7u7r4uLi4cfITgzQH79qGA/ekYnnKgT4w1F3g7T5xDCjiGB44nBUqDj48PfdiXPvJrg46QPkvWwG46E70WavQqefAk6S1sGdR7cY/LBUEVqTQ4bXFdDdJGdnMnhp2d/e+0HYZWA2AA7uw1iPlTGoSu8w3jrLG1tb34/fffX4RYa+4jNTS4HJVTgoa4GDHRHVh6/+4SjG7MfH19oS1urnD0pEyI4se2o7QbfYHSpUybuExtQF/TztrUVbQo1GiM1Pp1qwAC/fr1S4XXFp+bm1tGnoAIGx4LFFe0risTPb7LgAEDwiDUnfowyuTJk6nVDcfwVXNcsbGJeVWWRVdC5yTvAcZZGBQUFJmcnExvk9P3P9kawWUlliWJGpcpAZGuzc/PL8DITu8f4vnkk08ckXZ7dJ5SBkR74Hm6BKKvgsdppLRxurWlk2yvO6A00bk5bSLcIXZVueq1R00cPXq08PTp01czMjJuopCkEqKC4uEbFUx3GB2dmyvMwcHBsn///v0mTJigeelNZ/DII49447h3wAA0Qs15FfNMvTmlpSOGIuaH4GWOU66HgFXdAjdv3qQ/ULun5XQQLisxr8p8VlRUlMNRyEdW9d2jNkNn4oN60Tx8RfmjQOJCge2jozbC5UNTOi7bH0PLyrjWIKatuXS2N/0dgfNN5+Z5DkRz6e0M9F6o33jjjfJdu3adra6ujpC9+0aFIxaYrhDPSa8chVi7FBcX+2Cx0972NWnSJHd4rCF29FVdGW155bjONhQ+Lp+Pp0RpaWneJbBz505DeZNck4j5EvNLwO5Kc3JyDEGoYYaWPrDBRm9z5PywfYj5ay1cLuK+or1xZ0ChPcdvC51t522Bzq3t/JRnzntX5L+RUOMk3VcK2qnct2/fdWhVDApCaizkGfCfJFwwHJoqyM6Gzs3nJ+DhmyclJQ0cN25cfyx2xj3Vve3t7elPjT6YylG/NAg+L8GeUkfg8mPoeJw/8o4IWmawPiUmJubsunXrGj3mb0hwPrn8xDIgsFwK8ctLTEzUd6G2Qhuhd2M0uN+Y8sV5JJT5ay28Hx+PoeOKf1gS+nx5pb2IZchlwIGg8tHWNjuLRkKth9QVFhYWoACSMKzLpj93CC4gRiw0XcKVgqkZzh86c+bMsMcff7yjHxMwGzJkSGBmZmYQvCRr0RgIMZ8831l5VxoZLWszPmtra3q45UJ6enpBfYzhoS2vyjjkvTQPXLt2Ta//LA0JCbF0BBAT6fNaImQbHbUP2p+Eqqnj8HpRsHsSXDYcOhuDKdXLly+nxMbGRhUVFWkaDAkIIRYOxXF8V6Js0PAgTD09PftNmTIldN68eQ3eVtZWxo8fbz1hwoTh5eXlg7AoZYxFhPLZFd6KWIYiyngq2/z8/HJ0nomPPPIIvYRJ3x+pbhZlPSrB+lLYXF50dLReC7W3t7e5g4ODLepKY3uizXQUOkZ1dXVdSUlJLfqtqtzc3MqcnJxKzFfCgdIE2IY4X4Vpo4D4am1By3Y01RyLg7hNS0HcT95Xk762BNh7BaYNAvJegXh61wcGnbV1ypFFZ9KgBumBl+nTpz+BMJduFMRwvgCexJ+GDx9OD7x06zuGJ02a1H/p0qXL7rvvvkd9fX0DKY6G5GIvT0bJIk2F1pVo6yRKS0tr0Ki3Yd3vkMZ2P6X3r3/9i+7P/BW86uWhoaFBlBfKK59LzK8Ix7cVZWPm41Ic55MNEEZZA9GKQvgEo5tPYTPdKmBIX4eeTCTE8uSy4LiYmJijn3zyyX//+c9/HsSi3t5LvWDBgqBp06YtmzFjxtL+/fuHUBzVnZiXjgL7LsvIyEiHSOfCHvkyJA5f/x4OslECZdhbbn90YunkFEeB5ptqm7KN18nHw+ZSXbCRi5nQHKsphP14yiiXtSLsL4GybHQc6GNvKysrG9JKNzc3D3rwhdJMoaOC3eKTiUqhjoiI+NOIESO6XaiB3TvvvDPu6aefXo1Coa8Ua0SEQMFKQSksXQWfh8/LoIc9tnfv3lcfeuihi1j8JYFtIDk52besrOz/IZ8POjs7S5c+lI2OlmVDbpSGtqDNsGiZ4GPyeQikq+z48ePfffnll+vS0tLOHDt2rFs9apRDh4WaEPNK8HJcXNx+iPS/P/zww5+xWCJF6iFPPPFE8JgxYx6DQ/NQSEgIfWuwQV605bWtQJ8TMbL9MTU19ZK1tbWkBzhub9SB5uCy8yQJNeJZsKV5aQbg/FoTgGNJx8H+0pSORXF8LIojlMvaEI8hQvHKOG0gib8UGOD9OD/0xCeBUYZX3759JwwePHgKfUJMzkK7y5hRCrUcXc+KFSvGbty48X/oNbOogJCI/AsXLryIVXrx3TIk2hfDjc3k1VH6CBQepZN6NzlGN5Bx0rlpSoHJzs4O//e///2oo6Nje2/V633x4sWhGFodlg8pIZ6D5im/lG9OQ3uhfcVj0JQDIy6j7DMPHz78CtKpFx8wQLoCkf69UuLaAeWLylLML5UHc/Pmzd0QwRk4VaNrv/rE888/P+Czzz77fxgBxMtJbwDlifIp5q2tQBcuodN6GKdzqD+rSkBAgD9GwL+7detWtFxMncL169cj6Lhz5871o/N0rdvZycDQiskQ09PTsyBSUhz3XMgbNVppXhfQedHLyku/gDS4ODk5Db333nvpVr32YIfOkYauDV5Rqeyh+fw0pUD5p9BWeH9tx6DypGVeT1RUVORhsEVfcTHID9gq4fwq882gjGsQyH3SnXG1A7pFFHVEyDG/wPUq5rGd3C4tLaWyMNinUDubhISECnjXVbARjX10Qjk3wqCEevfu3VX79u27lpSUdANloxlys2B1B8oGgAbjHBgYeMesWbP6ylFtYtq0aX2Qn6GVlZWabzFqa2SUX2W+22sg4jFonoOS/Pz8UngOsfKXd/RauDqCojxqMYogr8AgnrzUVm9EU/FtAcN+E2uAWXrtqArw9/e3Njc3t0T5dryAm8GghBrDrqrNmzdfg1d3BYtSr07lQ4LVnWItYmVlZQuh7j9q1Kh2fYT2/vvv9+/bt+8QVL5meMlCzUJM+Wwqr+0Va/HYjPI8OTk5qZcvXz7/zTff5MhRBg/nUcwn2RKD+FqM5PTeo24OMY9iPtsBveKTCqdDBzEm0G6kPzYpyFGdBQ5ZV4filhpmi0INwWhfy+8aamNiYm4GBQVFIF2lcpwEGyHy1m6xagt8HvG8BA1B6U1fDg4OnrQoRbaBu+66yxdCHwrHReO18DkIMX80pWE6D9XF7dqCmA9e5nOIwGgSLl26dG7Xrl0G/zQiQ3lmYeZ8i2WI+Zrq6mq9F2p6vqC2tpb+2NMknvKivHwl5q2t8PFUfgHlqblLpT6m3qY6G4PyqGXolZNJ8O7SSkpKGt1xQMaka5QNACJrVVxc3BdetT8W618E3Dos3dzcvOlTSvDMNfcwKY8vIq5rapuOQmWKUUwdOqHktLS06ykpKQbxAdu2os126A2BKFd9fypREmp4/vLSL7BNsFh3FHQG8pwKg3LtctExRKGmbyrmhoeHX83Nze22p+LI6ClQA1A2cFouLS0NnjJlynB4/629ntd77NixfuXl5b7oiLR+dojPSUG5zHHtgfbVlg8+JolAfn5+HtKWiDzp/OMAXQXnmYO2coRQ16LTNFh14vwo61alc1HaTWdjkEK9devWDAzBz1dVVTV6z4S2xtYViI2bpjzEZOB9Bg8dOvSOhx9+uFW3Mrm6utoNHjw4DKIYwPdq6rJxcZlRPjgw8KYr4uPjo48fPx73m9/8Ru+9y7bCNqPNbuhyQnV1td63E7rkRpdwxDxoy4+KYWKQQr1v3z56Sc55eDqJcpQGXRsnn4+GhCxuFOfh4eEJoQ5ZvHhxqz7KuXTpUsfRo0cPQ2OTHlYgdCnUDJ1TeV7kpyQtLe309u3br9JifaxxwfVIeRc7KdSraU1NTVd9Yb5T4Wvt2tB1u1DpXFoUavmalL6NmyrHjx8fA6FOEK9Td4ewNQU8ZKugoCAfd3f3VnnUs2fPdhw+fPggFxcXXzlKZ42Ly43OR41d6ZmZm5vn29raXti1a9cNLOqbLbQbyqOYTxZp0Y4wjwGOKf3PoPdKp6w3RpnPjoDjUOEYjQ10BrCRLi8Pg/Soiccee6yI7gDJzMxMwMi8gVjroNwaGD9N6XKF6NHQqx6x7HL+/PlgLDZ6R7ASLy8vJ39//wAIvOYJuM5qXM3B5cVlRudksSZKS0t7FRUVZaIDScBi/XOzPYjq6mozlAV51Hot1HTpQ6ZLjV/P7gLrMRisUENQeu/evTsyISHhErx+zT3VuhBpET4fCZtSWCsrK+2Li4uHDxw4UHoMtBkss7Ky/BwcHFyFBqcTOP1iuYnz9IdtdHR0TGpqquYDw8aGmF+qQ7Eesc4UyyTU2t8kpEcgnUjuL3lRMR4MVqjB7a1bt0aVlJRchoFqXpajTTC7CmoUHBhxHmmx9/b2Dlu5cmWAHKWVwMBA/4KCgrCamppmv+TSFXB50ZRQnhfedNyZM2cu/utf/zLY9043B+WVL3dQOYhlQSCeXg+n9x413ZmDtBJyzC9QnLZ4FcPBkIW6Li4uLgNeaFRVVZXeiAg1CP4zCt6xlZ+fX9i0adPofmqtrF692mTevHnByMdgUah1SXMdm42NzfVTp079fOLEiSI5yihhIVOWBerS1MLCgq5R63VbqaiouF1dXU1vJtP6RIoq1IZNi8Ynf6dQX2u5xtHRMSUrKysxPz+/8d3+XQx7XxTEhsBCTQ+teHp6ekOsvWfNmqX1msYf//jHXvfeey89Nj7Q1NS0wfXp5gS0s6H0U+A80Twaf7Wzs3Pcjz/+GIVNjO62PCXaxAx1aU4dLmb1+tIH7P821RfqT+ftQKXrMWSPWuKHH37IvXDhQnhubi59baRbYJFjoaPAjd7e3t68vLzcB3HkVWtT3t5DhgzxBgHwXrulPjjtIiUlJXWpqakpN2/eTMeiVi/NGOCOSawzEcRZ2gLM6vUtehDq2srKyip0LJqHc7Tlp6PAaycb1p0HoSJh8EL9/vvv5x0/fvwkjJRevdltiA1dvMZJFBUV+cFjDgsJCVFe2jBZtmxZH3jSPk5OTla8X1c0sLZSVVVVGhMTE/HTTz81ulfd2KC6awYMjKwcodUW8rJekpKSUoM6K8Os5s6czrYjuZwMXjMMkQaFDqGQXjBCQY7Se/Ly8oqvXr16xcHB4aZ8z3ezdJbx0nH4WGTA3NgpTlwmzM3N/UaPHk2vPnWVoyRcXV1tra2th8Eb0rwSlY8rHr8r4fMo04y47KysrFMff/zxTTnK6FCWsViHDOJs6KOxYWFhei3UsbGxlRi5FaINk1g3Qlm/7QHlovlii0rXg/KmD3VI863pHclqu14x2k/dyZMn05Ch5JycnEK+PkxQgxMbHc2TmIuCrtymLSj31dYQ6EU58JZ9Ro4cOWTp0qUNvvoye/Zs58GDBw9FejQfGeAG1RkNqzVwHpRlAC8y28/P73RmZmajx/SNBS5fthlaVpYD4qzhBDgOHDhQt/dNth362GoehFrzVknOH0215a2tCG2n6w1TpQHGMoypCQ8Pj09MTIyRv0AhIYoQG2lHjbU9uLi42Pj4+ATZ2Nh4yFESCxYscBk+fPgdzs7OXnKUBDcqXaSVGzEFgs5ZXFxcVVhYmDJ+/Hi67NEj/0RkzMzMrO3t7Z369u2r1x41qCwpKUm3sLDQ3J3DddpZyDZJB1WFWscYzfWmnTt33khKSjoLD1Zzqx4bKnkBZGS0zE8QcuMURaqttGZfOh8aDwXXlJQUusSheZveoEGD3AICAkJcXV2lJxflhiAF8vLE0UFXQemn8uB8UFmlA3R8UXv27OkRn1xqrg6xzgYdraOXl5e+e9TV5ubmaehUGt2qyjbVCTR437WKZB+al/t3JY2Emk4szxoUX3/99U0Y0Rl4QA2EWtkISZSIjhqvtmMz4nF5G5zXtqysrH9oaCh/+cWsoKDAF960BxqYtJF4vOaO35WgDG/n5ubGQKQv7dixo8HHGYwRLmexrMX6s7a2tqGO1N/fX9896l5jxowpgP2XyJcnNIh57KjdY1/auf0HUGkXRuNRg0J4pzcqKyuz6CktEdFjJJSG2hHDbQ7xuJi3grcTeu+99waNGDHC3MPDwzUnJ6cfDa3lTSRoH/KkuWHpCk4rzllta2t7FSOU8I0bNxrlBwKUNFfOEGqLPn36uGD0o/dC/fTTT1eh80c/m1tUXV3d6UaNdlSLQI3L6C+H6RvGJNR0729+YmJifHZ2dokgPI2EmuY50HYcOop4LuVxEW+FBt9/1qxZfvB8LCdNmuQPT7o/vJ8GAkDbk1DTlI6jKzidVVVVxfAg45KTk+n6tNHeP90UXIcMOtfeGPW4iS/L0lcWL15cFxUVlZSVlXWDHn6Roxsg2mR7QPmQUaq3fuiYBkIN0aAa7LhidRMHDx4sOnPmTAQ8ikQ2RhY9QjRSFkGa8nxb4ePxMZXQcbFOWmllZWXi6+vrN3LkSPdFixb1gmD7u7u7h0IUfnntmZC29qaprYjnLCwsrEpISEhMSkpKRZTRP+FGeef8NwWJtqWlpV1xcXGrXlfbnWzduvX2li1b4lB/12D30m16ZP9iG+iIbeEY1igLv/79+4dgsb+FhUV/b2/vEDkMoODm5tZfDLDxYA7KdWKg9Q4ODv0o4BxSQPwAHx8fOkeD21p7Ig1qbPny5aMhII9PmzZtPobmHvTHHHroPwwdOnQ9VhvCMNhq3rx5I//whz88P2zYsIfIIOl6nWicZLAdMVYRsaE3dUw0EvqzQbMCXv+6kydPfurp6TkXHvbzMFBH9uCoQTGiV9eVcHkQKSkpmejodl67du2TNWvWXJIi9RyUWSDy8BHK6x45qtWIddccGGVknD9/fs3EiRO/xKK+twPv7du3L5oxY8YrdnZ2fmxTTdlnW4ADlAXbOB8bGxuDsisiG0WQvGtMEVXX6BkMcZlWy7ONkLero/TSPNotJr3N0BnchpNz8sEHHzwkHktfCAgI8H/ppZcWzZ8//wk/P7+BcnSHiYyMjNi3b9+G/fv3f7N3796UBgXXhFC/LQu1IdwB0BvCZxseHv4SeuPfm5ubW1DFw0AkIyXD4nmaUiAovr2Ix6HjUmiOtLS0M1euXDkfGho6At7COBiitAMdQzZSTTqJlo7XUeg8fA6k7cpXX331/rZt2364ePFijhSp53REqBmxDBix/MvLy3MPHTr0wf333/8ZopJotbRSPzGDfU0KCgr6h729/R2cD4Lz2V6bQodVXVFRUYopdVbSiAvHVB6MxFq626mtYD8SaHlJWka1SpcSP3Z0dHwX05afaNMxuhJq3bhtuqOOrk+XlpYmZoCysrLbckXLq38RPjJa0YjbCx2PAyEeV5xSgKjUQZhDgoOD57q4uAwhkeZ14jEIcV4XUBrQuOjhlssQaaN993RLcH1wIFBvZpj3GjNmDN3vru9tpgZilxQXFxedlZVVpLSr9kJOBOzV3MHBwQlOUB8EPwpwjHwVQYp3dnZuc3Bycurr6uqqCfS1I8T5osPR60sfYufSVTQwOoiawT1Crg14P6kxMTHhJSUl0u1lSrHubMTGoGzkymUYnzOEui88BHuKowbA6zmdvG1Xppnh82VmZtJDLol33nknXZ/uMX8ictlzmTNiHKYWNjY23pMmTfLEot7/kfbee+8VHD9+/GBeXh699bBToLIgW9U1sMuihISEnK1bt8ox+gVGGFQ2Xa6ZjbwDOiFVCs+TeGO2SxPR2Xz77bcJsbGx9JXyBsN3yhcHEigSRgqc37ZA+7DIMnRMDsplCjgXjeWkcxK0P2/L6WKUy11JZWVlbWpqatyFCxdiIiIijP7eaSXa6lCsJ0wt4En6hYWF+Tz99NP0bmq9ZvPmzYWnT5/eDS/1LLw9TeY4b+2ByoLKibxHCqKDobRTbXGtRdwXjlZlSkpKDOwy+fr16+07oJGg78O4dnHkyJH06urqs5aWlhlylAQZgNJY22tQhDajbyqO4+l8bOwURw1A2z7thRqQNs9HbACEOI/zVxUXF58/fPjwhc8//1zrbV3GjLbypziOx5Df1BeMHTvW95NPPpHi9Jzqb775Ji0nJ+c4OuBwdMT0nmopP03ZO8U3ZTuEWB4Mxynj2daU5+JziPHatuPjoW2UZWdnn7xy5Ur4mjVreswoTxtGKdSgbOLEiTEwilQItlTBSmMi2Gi0rWsJNlBt+zYVT1A8/dHCj7JzHAu2MrQFNnql4RPcCLVtg/lyKyuriG3btl2PjIzsUR+wpTJuqrPkcjIzM+vl7u7uEhAQ4B0TE2Mjr9Z7nn/++SvwrL/Lz89PUtR3gymhzT7Yc2a4rJoqL0I8tnhMMY6XCZoXlxk6N9puKqbH9+/f32mXcAyVFoUaRkql2Lgk9RwYU+GNGzdi4VFkVFVVadLP3izRnMEZIpQXDtwouGFwXnmZ811TU0MvYcq3s7NLKCwsNMrvInYGaAe9y8vLPbZs2UIfgND7yx/EsWPHkiIiIvYmJiaeT09Pl74rSvVO9k/1zgLJU7YRWqb1aDfSlKF1bDe0jWhfDG/Dx4LYSseh7Tie5ikNvB8fk87F85mZmXnXr1+/GB8fH3nx4sUeN8pT0kCoqVCpEI2BtWvXVu/Zs+cKhDoKBiFlioxEhI3CWPJMUB6V+SQor8pAwNuquHnzJj0kkSlFqDRJQUGBO0QnzNfXV+8ffpGpcnZ2jkL9bs/Kyvo5Ly9PGi3RCIHqn8WWprTMtsO2wVPehoWV4HWtgc9D0H7ivmyrtJ7SRcBxuI30nsFo4Pvjx4/TF4Z6PA1aNHq5BvcxGjL0noovvvgiAgZwFYaheTeBUsjYAEUjNAaoMYgNj/PHy0xpaWkKPJez3377bYPr+SqNQbm5BwUFhc2ePbvB62r1mVdffbUUI8s9EOmNycnJF3NzcyXvlC69kR2QQNKU58lOaJ5E08LCQtqO4nkdr1cGhrfh7c3NzaUg7ivaJcFxBIk00nq1oqLi+ytXrhzYunWrUX9UubU0dr2Mh9sY7iW6u7tHY6QgPU5LnZDSsHoK3HgInhKWlpYJ8Lh+/uqrr1ShVqC0FVtbW48BAwYMnTVrFt2mZzCsWbOmJCEh4SDaw/vx8fGH09LSJMdF2YkTbCcUaB1voyyL5hC35/25Y2DE8zDoRKQHwjIzMz/AyGUvnC26A8m4PKh2YsxCTZSjwpNSU1OT0FNrvc7FxmRsiI1PhOI5lJeX11lZWSXBc7qOVT3utry24uDgYBMYGNif/lTEokH19k888UT2vffeuw1e6mdxcXG7IYbJGE3d5j+1xXYg2gjH8zYstrSOEed5G95ePIa4Lx+TAr3tEl50ZkpKyoHo6OgvtmzZsmny5MnJ0sYqEsYu1L12796dFhUVdQFCnUNGQVAvzsbFhsVGZAywpyJ6K2IeuXGgseajE0uBABVKK1S0wrZClwJcXFzcampqArDoIkUaFtVXr17de/Dgwb8fOXLkS9R9pPJSJ9kGiTdd+uD2oq1tsD2JdiVCZcbtTLmej8tkZWXFnz17duvp06f/jtHdd2vXrlWdBgVGL9QbNmxIvnbt2kkYTRobjNJ4uCEaE6JIE9ygOO8Q6qqkpKSY/fv3xxYVFfX4f9VbCwTMBqO0wQ8//HBocHCwvn/1pRHvv/9+0Z///OfTH3/88dfwYv+RnZ39UXx8/IX09HStb0tU2pEIizELsjKwzWmjoKCAPsh7Def9FPN/37t37xfPPvvsoVdeeaXHvr6gOVoj1KRiBqtkkZGRefCmw+ElpIpGxwYkGpYxofRalEBwStBQT3/77bdX16xZYxz/IHcRotjAAzVzcnIa+sADD4xetWqVwQk1c+zYsehx48Z9/v/+3/979+jRo19gdLUbghlVXl6eho4bTaa4ltpLc3ZE5ULrKbAocxDjCRyXxLm8tLQ0EyOSuJycnANnzpzZ8O677/516NChH//nP/+5iM2a7hV6OEbvURO+vr4pML50DLEkQ2DjM0aB5s6IGwrB+eRGRGBa5Ofnd/bcuXOxtIkUqdIi9Nk0lFu/0aNHD12yZInef0ygJSCQSadOndoGEV2dlpb2CkT7fYR9cXFx10mw5c06BI5TR5fYzp8/f+LQoUP/u3nz5m8R9+bly5e/xvnJ/lRaoEcItZ2dXWl4eHgcDDGR3mvBYkXX50jYeNkYYDGmoK0jonh4NXT/dLanpye9slO6I0aldVDn5+DgYI3Qb+fOnf0RZVW/xnD59NNPM6dOnXolLCxsz+zZs7/+8ccf19+6devDqqqqf6N9fAAR/yolJeX7+Pj4Qzdu3DgVHR19GdNr9IY+hBuxsbE3IL6RmA9H/AXaBvsfyMjI2FpSUvIpjvPP7Ozs9y9evPjJs88+u2HgwIE7R4wYceGf//wnvQBMpRU0UKiHHnpo5H333ff4zJkzF3h4eHhCyPJROW8OGDCA3kdtyF/8MHvqqaemLFy48MmJEyfOsbGxsSUBowd8qOHxjfbGBOWPOyEOTGJiYhEa1o9oPO+izq/J0QYJ8tjh91G3B5Tdrb17934Jkfv62LFjcXK0sWD6ySefmEAHTOHgmMPjdiwuLu5jaWnphRGFk62trQOcH2srKysL2JX0zndoRQXdBgtPuQLQ3VY5NTU1KYGBgemLFy8uvXbt2m10AnSJzai+HOTl5eX/6quvLkQen8DIPVSO7jBRUVHh+/fv3wAb+5beRy1H10NCvWHDhg8zMzMzYPx1KOg89I6/wipDV7Leffr0ccOw61V41Nly3qQAI5OCMYFGU4dGo8kfIeYRje/KX/7ylxfnz5/fRy4fgwX5CkR+98pZ0wlUvoWFheUQn1MnT56cIyfF2KGe3g7Bld5HPXLkSL977rknYMGCBUEUpk+f3jckJIRuW6R7zOn90QbzTpSOQEK9du3aV5KTkyNl8+gUIiMjr/zrX/96ZdasWb50nh5x6QPUpaen57i4uMRi2J8PAZM8TPKmUSbyJsYB5YcDAzGT5+qxtraOOnPmzM87duzIl6NUWgmXrb29vZW/v/8QZ2fnOxFNwmTsbYkMit4XkpuTk5NOrx7dt29fwvbt2+MpHDx4MCkmJoY+PEGvIshFUC+pdSI9RaglMFzNSEhIiKfHaFmkScTEywKGDOeH4CfB4P1J8TRP07KyshqISyw6rqvYzBA+r6Y3cPmS7VB5osOzKy8vH/3CCy+MxWqDv1ator80Emo08AZfK4BR0rxRuJ1btmzJvHz58sXi4mLpqSdqbNTojAXKD0/F0QLH06fJINDJKSkpyeobydoOlSMHgjpDT0/PUUuWLJkGj9JeilRR6QJ6lEe9fv36nEuXLv0MEbtBy0pBMwa442HPmpY5rrq6ujQ+Pv7igQMHbkkRKm2GbEa0F29vb4+QkJDxZmZmd06ePJmu4ar0MKjD7mp6lFCDktzc3CuOjo4aoSJBo2AsYs3eHuWJOyIGy7mZmZnnvvjiC6mjUmkfZCviaAUNtR/Ke/7dd999hxSp0mOwsrIiG6DvF3bp9dOeJtR18H6yCwsLk7OysnLpaSlqaBSMCcoPCbQyX4jLs7e3vxwZGam+Ka8DULmSUPP1fzRWl+Dg4FnwqCditaG8q1rFgOhpQk2vfKw7derUTbpBH0Jd1ZSoGTLa8lRaWlqN0UTqkCFD6CGXHvW5rc6GypUCiTSNXGxsbEz8gL+//7R33313wpEjR4zvxnyVbqXHCTWo++STT6JTUlIuoLH1iLfGkaCkp6enRUREXD9w4ECnPBbcU+HOj6Z8Zw0Dz3rs9OnTH8KUnlhUUek0eqJQ9zpx4sQteEFnLCwsjPIbgezp0ZQgMSkqKoqGSJ89dOiQKtQdhC550L34VL5c1oS7u7u9j4/PtJKSkoWvvvqqKtYqnUaPFGpQHBYWFltRUZFeWVnZ8GkQI4AFhIUaolJjaWkZtXXr1isI6rt+O4Aozly+HEcetp2dXR8XF5fFw4YNu3/evHn0IIyKEYN67w1b6PLrpj1VqHtFR0fnX79+PZr+VJSjjAbyoMVr1FVVVUXOzs63MjMz6SU4xnF7SzfAAk1lyy/W53ImL5sChNokMDBwILh/1KhR93h7e6tirdJheqxQb9q0qfjnn3++kJ+fr7lVjz0jCiItLesjJB4USktLK2/duhUfGxtLD/moD7l0EO4EWaB5maYMOkWzgICAO6dOnfrIqlWrxiOqR7z3QqXr6LFCvWHDhqIjR45cxHA1Ro6SBFgc0hI0z4FRLusbYtpKSkryrl69evabb75JkKNU2gmLsjbosgcFxsXFxeGOO+64a+LEiQvkR8xVsVZpNz1WqEH14cOHb8D7iaf3X8hxGu+IxI5Fmz0njuNlfUVMG4boWWlpaae2bNlyU45S0RE2Njb2YWFhs1asWLHy5ZdfvgtRtvVrVFSaB1rT4Np3TxZqoqSoqCgxMzMzuby8XPqgAAcWZYKFj+Io6DucXrpmivksd3f363l5eUVSpIpOgSPg1a9fv/vmz5//2DvvvDMDUeo1ax2wevXqIITBM2bM8MCieX2s4dJIqNG4GzwOKau6ZtnYOHjw4C1wAV51MQucISN2JDk5OVXZ2dkp3t7eOXKUSjcAsXYePnz4nMmTJz/xhz/8YebYsWMN8QvmhoLJoUOH+o0aNWqZn5/fM4MGDRqPcneU1xksPd2jpjfq3YyLizsHgdO8m5k8UUK8DEKB5pV/HOkbnLaqqqrajIyMm+fOnYu8cOECvUdYpRvgjtPW1tYuNDR00ty5c5984YUXli1YsMBfWqHSqWzevHmCv7//S3feeefSwYMHzxo4cOCYYcOGGfwopscL9fHjxzMgvvSV8iw5SoMoytzg9FmkFdRglHDh2LFjp19//fVKOU6lG2DboT8Yg4ODp0BAHl+1atXSs2fPhiFafeNexzFZvXp13507d84aOnTo405OTo/16dMnBGXdF5710NmzZzvJ2xksDYTaysqqt7l5w8s5xn7pA1T3798/AaKWWlxc/9Ce0mumeQMSaAnkoQIj7oiffvrpChZVoe4GSKD5/moWawcHBxMISBiG5M/Z29u/9o9//GMyolWx7gD333//YJTniuHDh/8hKChonqurq/SnLTpGi34A8V16qQna0OXi0MijhkHp4rx6RWpqKj38EpWVlZWKRkUFIDUs+jORG5i2OH2FPtpbVFSUa2lpmZSZmUlPIup3go0YshsO9Ng52Y+tra2Zh4eHr5ub29wFCxY8d/jw4acfe+yxUfIuKq3kV7/6VcjFixcfhzf98p133vmIl5fXODibGu+Zyhxl7ZKUlBSERef6WMOkx1/6IP7617+Wo7Gcz83NDYdQax4p1ybK+i7SBH149datWzFxcXH0/TqVboKEgu+vJruhkRpN+T8Qd3d3B39//9l9+/ZdNW/evMf27Nlzz+nTpwMQr3rYTWP5/vvve//vf/+bsGTJkqXwml/CCGUFQghfDaAy5naKztEKzsqQcePGBWPRYN9qqAo1iIiIKP/xxx8voyFdR8VKT+9RozJUiouL08LDw8+tW7eOHhlX6WZYnFmsScBFfH19A+66666FY8aM+Yu9vf3v4ClORbTB36nQBVitXLlyFDq2Z6ZNm/anESNGrESnFubo+EtRUTlzWctYOTk5hWHkMujpp5+2kOM6DZxHukuOghzVJahCXc/tyMjIVDSSWxUVFSVcySzWvMxDWGVD0zccHBwSsrKyDm/btk39QEA3Q7ZDQbQZmqfRGgXC0tKSrqd6ODs7j4TwLFm4cOHT6GifP3bs2Fx4jaG0i7RhD2XixIlBP/30031Xr1594aWXXno2NDR0GTq3u9Fe/WxtbenBkAblLJY1RjP0OP+Ae+65JxT7dsU3s3Qv1MiwtpPSfE8wlNrS0tKUnJycBEylCBJq0QOiqb572uRNWFtbJy1dupS+Mq7elqcHkN3Q5Q+akpgwNC8uEx4eHi4QotmBgYG/dXNze3X+/PnLMDKampSU5IPhPv0pZlm/pVFjuXbtWhd0VH7/+Mc/7sIIY4m3t/fL8KTfRNksCQ4ODtJy04M05TbL7dTCwqJ3nz59PPz9/QPz8/O75Os7aHNdoo+wl95oy9J8A9WBMfUUUdbKjh07kuBZny8sLDTY91SnpKTkxMbGJlRWVpbJUSrdCIkzBXGeg+gEiECETOAtOnt5eY2mFzstWrToT/C6/+rp6fn08uXL6SVPxvx0o+2yZcsmoKN6BsL8F+T3zzNnznwcy+MxUnQ2MzMz5TLjjk4sS44TO0CKr6qq8oLw0zvCrepjOwdoRR2Emm5AaNjjdjINrGTlypVjZsyY8fi0adPmoWf3QALy4+Lifj9w4MD1WN0TPt/ksnr16pGPPPLIlH79+vnKcV1aAZ2EVI8VFRW10dHRyRgiHtm1a9fJrVu3Gn2dwZMKRKP8CA31HjnKKGABYsrKynolJyfHZmdnX7Sxsbnu7OxMrz7IvXz5cia8z6ybN2+mYzPNO2sMBDPkxf3FF1/0nDRpkvuoUaOc8/Ly+mZkZIxwdXUdgY4p2MXFpXFPBpRCzLBIU5wYj7KL/vbbb9e9+uqrX2BR83BbJ+D8xhtvLH/yySefDgoKGiTHdRg4jBH79+/f+PPPP2+GA5nSoBBUoe7VG96L+Z/+9CdL5LnBP8ToOXvxnxY0T4h/YugJdTt37qxF461cs2ZNj/guorEKtTbgFSKrdfSdz8rS0tISekdNYmLiNXTM1wsKCi5Pnz49etiwYRUQulo08Nq///3vtWi/dItJdws4XRs2pWvEkydPNrvjjjtMYacO6enpQe7u7qHwlocEBASEQuiC7OzsnKA7lsijBV22qN+9MSTGBImxON8U1KlduXJlf25u7mcPP/zwJTm6w0Ck/QcNGrQAHc3DyEM/iqP0NJeW1qAKtYpRYWxCTY1cFJ7mGnx+fj69xjaruro6y9raOgNednZ5eXkRRCnr2rVrmZcuXUo/c+ZMxpEjR+g2TXryVtefYaO7LLxGjhzpOW7cOK/hw4d7hoaG9unbt68nPGlXpNUNaXc3NTX1gCi7QbSbfXkSlwuhLBdt6yiO54uLi2uKiooyUU5RTk5OnfInO/SRnlewQ6cZCM8/EJ1Mp10DV4VaxagwVqFmkREFSVucEohfr7y8vGyQDiFPhYikoWzSIeKZaNJ5ffr0KYYo0hfpqyHo1RgdVqalpVXDC6/B9rfhtdO/crfpE3UVFRW34anfhg7chpiaQORMrKysTOjpSsz3xtTU3t7e1MvLyxzHtnRzc7PAeSxsbW1N0YFYQDvcsrKy+tTU1Hhjvz6urq59sN4HQkmfK9P6r3xL+SfEeN5OuQ/9uahtu66kM8/RZqGOjo5+e/DgwSTU6mPIKnqHMV76oAYvThkWAuRVjtEOhFF6KRfKphrbV2H7aghtNab0Kl9E3yaBLoGXCYewqBBiTDNlEPlqtPlqrMchamiKw1RVY/62mZmZCYI5jmFhaWlpBrGnYAHBtoJg2znW40zzEGW6M8UU+5tiX3NMybMmb5l2MVPesSEi5pnyin01ccq8UzyXCQWG4mg/3p636Ur4nHS+zjgXhPrqgQMHNmI0tHnnzp3JDY64fPny0bNmzSKhnk9CjUIuiIqKenvo0KEk1BX1W6mo6A9oHEZ/jZpEgBDFh6B4DhTPobXA66U/oCspoK1XIZCQSwHnkqYENiUvG6c1ka410xTrTBDofxzorrklaTY8ZZPmRFgJp5vhfGqLY2gdxVFZ8P5UHrwPxYnHEePbC5+Hj0VFwnXBt11yeggxPe1FKdTNd80qKio6h8WGGj8Fghq+UpBElMuMeAwldnZ2vdzc3Cx9fX0dAgIC3IKDgz379evnHRQU5If5AHqh0YB6BtIP4vpRPK0PDAz0wT6eCC4+Pj627u7ubRZpcUrQPAemJcFraj3FUxDzTvPisVuLWOa8P8/zMp+vq1CFWkVFz2CBgYcrvWCLxYbFQBQIEm8OFEfbioKkFBBe39VwWjgdIhwvBkKbJ8rbcrop0Da0LXuz4j68jqba9uF1bQ10DPKkKS10DPoKPQVax+elwMfvbFShVlHRQ7jRiw2fBY0QxYDmxUDQtiws4raMeCyClimI4tbUNtoCQ/O8r5gW8bgi4jYELdM8B15PU3Fb5frmEI/RXvj8HKheGEoHw5dFOpsGQo2TS0/YUJCjCMpd+3OooqLSJqjhkxCQx0aXE2heKU4clIjx4j5MU/tyHJ2LA2/D+/M2YnxTgWhqW4rTdg7ej1BuK055HQclHEfbitsTPN+WQNC52YNnlNvQlDupzqaRR42E4DydfyIVFZWWobbHgeFlFh4R3o634WXaTimGTSHuKx6Dof2V6zgt2oJSUDlOTI94PN6PIKHjZeV24rZ8LILiGRZK3pa2oTiO5/3bEhg+LgVCuQ1NqXPldHUmDY4oXg9TUVHpfpSi0FpoWxbFroLTJJ5Ducxo21aE48Xtmtu2qfXKuKa26wz42Hx8mnZVmTcQ6traWnrBiLzUsKdSUVHpepSNnaYctCFux/s1tS2hbT3HiUFJc+u00dL22tZr257jmhJA5T7atqVLFsrLFu2Bz9XR47SHBkLN30zkhNC0pqaGFnSfMhUVFRUViQZCzfdBqp60ioqKiv7Q6Bo1QfdvMmZmZqTaqnKrqKiodBONrlGzWBOqZ62ioqLS/Wj1qMWL5bdv31avUauoqKh0Iw2EmoBIax54IcGGV03bNNpORUUfqKysVEd+KkZPAwG2sbGRbmMRDR/LdGO1enO1it4ijgBVVIyRBkJtIj9CLgg1zdDrTdUPparoJZaWlmSfv9z8r6JihDQQ6vLychJp+pqDpNR0fbqmpkZ6By0tq6joIWSb6qU5FWODtLiOnGdaaDBmfPDBB4cvWLDgsWnTpi309PT0rqqqKo+Njd10/fr1A1ZWVtKHA8QnF+kyiTbkPyC7FM5Ae8CoQUofT0XEtGtbT7Qmf9rSRwUvz7Yr/eL+Yj20REfKqrsQ00z5hi1qbhuFFy3ZHhyL2/Re5MGDB//K2tp6uLRSRcUIiIqKCt+zZ8/XJ06caPwpLhLqefPmPTZjxgxJqKurq+syMzMTsrOzMyAM9FmfOhIpBKkR0QtI0IYaiZa2uM6G0iLPNqCpeDFN8nxviEGTaSeNFvcRt0VZNNpPCY9KGLnMNHFNpbM5uNyRrjbt355zKWnpGGJZtRfxHMK8NK2pF2lpnt8DTJ+bsrW1pZfe97ezs3OhdSoqhorcrqV5Euq9e/du3L9//zeYNhTqRYsWjZg7d67kUXsBiispKZE+eIkDSH8o0sHIm6MDNuVRGwhahUUUHC40Ja0RJezbSNio7Bht61uLXKHt3t8QEPNH+aUgetlUN4ij/1TM4E3T9/tarBOGjkXQMVRU9AU4YmTj0jyEOuLAgQMb4FV/00ioH3744dFz5sx55u67734EOk0fqFRRUVFR0THR0dHxEOn/7dy5c+OxY8caCvXSpUuHQKiXTJ48+X72qGXoVhDVA1HRB7SNJIx6dKHSo5BE9saNG1d++umnb7Zv377r9OnTWQ2Ud8WKFU4zZswImDJliq+Pj4+1HC1BlzsM/FKHioqKikEQGRmZB5FOWL9+fWpiYqJ0I4eKioqKioqKioqKioqKioqKioqKioqKioqKioqKioqKioqKioqKioqKioqKioqKioqKioqKioqKioqKioqKioqKioqKioqKioqKioqKioqKioqKioqKioqKioqKioqKSjehflurZ2AxYMAAh8cff9wmODjY0snJydzU1NSktrb2dklJSW1SUlLV8ePHy7du3VqEbcvqd2kVvSdPnmwZEhJi5+fnZ+3o6GiGY9ZVVFTQV8M1tmVlZdXL0tKyV2VlJX0smT6bdbuoqKj2zJkz1adPn6bzlUgbtp3eTz/9tHXfvn0d8/PzrXJycsoRV/Dll19qvoixaNEiC3d3d5c+ffrYYip9yb20tLTBp7vMzMykNNOU0k9xKJ/elAdKu5gX2o7Atr1tbGzoE3UmyFNJdXV17po1a6qklWDEiBHmVC6hoaF2tBwVFVUSExNTcvHixWppg47h9Mwzz9iOHDnS2t/f39zOzs6MPvSbmZlZm5ubWx0bG1vxySeflBQWFhbI26sYOKpQGz92Dz744NAhQ4aEDRw4MMDT09MLAuMIITLDumoIT2lWVlZeampqSnR09PUjR45ERUZGpmJdrbR385jcd999/SAYI/r37x8CwbCHXkALb1MnYEJfVaZvbZqbm0tfV4bg9YKg0RftK3He8vT09HwIWNLly5cjr1+/nojj1dQfttVYPP/88yEQxbtxbH8I9Q10AAfffffdOHl9r7/+9a/eENu5zs7OgxEoPbVVVVXSefiLzyRymFB+pUDpRvpNkW769pwpVvembSkenY3UZtDxmNB65McScdcw3fbYY49RuUmMGzfOY+zYsSMHDx48gvZFmUKjL148fPhwprxJezCbOXNmMOpyGDqAYHSOPi7A2traljpd5L0UoSg7OzsDnUIMTndp//79VBZtLVcVPUMVauOkNwRs+LJly+7o169ff3hWIRCSYIiLD0TL1cHBgTxCSTjLy8t7FRcXl0FsMiE8cdjmJhzEmLNnz15ZuXLlRRyruP6QWjF76qmnJoBFw4YNm2Jvb++CDsACx7WCqJHASRtBqOogzr0hJvSB5FoE8iorsFyIbTPgicfh3Inwrm+89957p0+ePJkk7dgytvBip997773PIt2DExMTL+Tl5f0DgvmzvL7XwYMHh6Jj+n84x0wImpQMubOgtFC6pM4E3Ma0CoFGFbWYoojM7DC1RqD9aBvyuKUPPSO9FEd5pFHEcUx/DQ/6Cm1EoAPrf/fddy8ZP378fNrw/Pnz3x87duzbbdu2xcibtBoIs+8f//jHsWPGjAlBefVDJzcQZeqPNHi6urqa2traSt80RT32Ql3XYZtsLCcgPgr1HXfq1KnoN9988xw6i9aWq4qeoQq1kbF79273goKCYRDNufCg78PQOAAiXAPhpMsLpRCtCujG7fqtJW+SBNSsrKzMGg3fDuJkmw/S0tIOQfi+h4N28rvvvsv66aef6LJCg0sGwPzVV1+dAZ4aPXr0PRAFc5ynEMcphJDU0LER6t1WgHkWRfK2TeHZWmDeGuJujzSYxMXFXYE3+LWHh8dOzCcuXrxYcymhCRz/85//zH3ooYdec3NzGxQeHn4JeX9r6tSpe+X1vRISEgZBxF+Htz8R6cPppa/pU/41tk/LCLTOBoueSI85xI7KLBfzRbQO85SPerWuPwbN0k40E45y+z3yfJ0iieXLl4fB+30KYv0ItjWBSG/6/vvv//fNN99EyJu0yHPPPWf36KOP+mGkMNvb23txUFDQCHQ2VG4lKK9SlHMF8lQlp0VKF5JtjvWWiLNGehyoXOPj4y+gLrcijXtKS0uTUK7U+WpsQEX/0RiriuHz+OOPez/77LOPQujmQpiCMdR3p+vCEL3r6enp5yE6EWFhYTexXnNNGOvNY2Nj3VNTU/vD6xzr6+s7GqLnhAZfioafgBH0j/Byt2/ZsuUqNld+Ddn8xRdfnDl//vznRowYMQ2eeF5ycvKP6BwOubu752F/M3jsJHpkZ5JCk3BkZGTYQFAdELwsLCwG9O3bd3wAkK//xmN6HGlaB0/9FEU0g+O6devmLlq06A0nJ6eBV69evZSZmfkWOg6NUF+4cMERZTEEHZQ7RK4O56tFOUieMQTNhOaxr9R5Ib1DEV6GwPkgzdk41noI5FFah3KygMdK1/brEKRj0/4IdFkkH4J5BeWtuSZMQj179mwS6kexf+8DBw58jQ7vfwitFWqHjRs3TscxFkNgR2E5CJ0vdTw5SUlJp1DWVwIDA6PRGWdhndTxABN4zS5YH4C8Dvbx8ZkEcfenURPyewujjfOXL1/etGDBgkPYvr3/C6ioqLQXiFQ/NNK3IYLREJs6CEsdHOMzEOD3ILIr4d2NxmbO9Vtrpe+aNWvuwxD9dxDnb3Nzc1PpODhuzAsvvPAYRFzbvuarVq2aBW/xB3jexVFRUZcxxF6O+Holax5rBN8HH3xw/N69e5+FwK+HN30DnmsdBLHyxo0bX+Dco5CE5pwJx48//ngZBOgqBLMOInR63759M+V1bQbnHVpdXX2F8o3jRR4/fnyivKrNPPLII4NQ7n/PysrKQMj8+uuv/3HfffcNlle3hMu33367FB3sXkoLAa/6FsJXp0+ffuX555+fgW361m+qFXecf+zhw4efw8jofzh/OJUr9q9D+fw/rPeu30zFUNAMS1UME7Th3q+88ooHPKiH4f294OLiEgLhqsJQ9zBE99/wytYcPHhw4/79+89j8/z6vbSStHr16r0Qy3+//fbb/xceHv5VYWHhdXiPyfCwK+H1yps1BN6eNEU6aFILj5WE1ZYWWoAupaTAwzwD8fkUovInpPdTDNOjLC0tLZCPh3CsRzZv3uyB7ZoUawiqNIU3SXdqaNLTHrC/LfIhdTLwkm/feeed7f4TDmmX5zRl0yCuKTA6cPzggw9mTJw48UmU+QyMLmrQAUahPr48d+7cGnRo72M9ecTNXW/ORsdwFh3o+h9++OEP8OY/jI6OPomyuQrPvxDr1ZG0gaEKtYFz9OhR1zlz5iw1Nzd/FF6vBzzhSnjR2zFsf/eLL77Y+9prrxWvW7eO/rxTXl/WRi2G2pXwBMMvXbr0JY71BoTw7xDO0xg+a71tD54aDf1p2E2LvSEGpmPHjm2LWt6m29pWrFiRdPbs2c0YCWyjSyiurq6WyNMoePfDsY10i1tT4NxS3qjTqqnp0A0O9A+hJNQk2OjwyOtvF9SBwDuX/rClMkJUb+SnfmUzvPjii3dg9PMEOsdxdJkI+T+JuviAOk7UzU35un1rri/XUbn+6le/Sv/mm2++h2e9Bh71atTjHqxrrsNW0UNUoTZsrG7evDnE09PzQT8/vwEQuKr8/Pwf0KjX33XXXQc2bdrU7gb529/+Nrpfv34/Dhs2bN8bb7yRgGF4pbyqOUiQ6Na8dnlsEJakGzduHEhJSTlHHQO8v77I1/iFCxd6yps0gq8Xk9eK80rzHYDSzUJN19LbLdT03wAEWkqX3Ik1Czxp07feeivQxsbmfg8PjymIskpKSrqEUcbGZ555ZuvLL78cX79l2/nxxx8zp0+ffiA4OHjHrFmzwhHVlnvlVfQAVagNmPHjx/vDi77b3d29HwlCQUHBVUy/wHD3uLxJl4PzSd6iHCTvFuLZGu9dK2+++WYSOprjxcXFGRYWFu79+/cPe+CBB+jyh1ZIqEmgKf8dhToY8mJpno7XkXwwdCkGIw4pkIfdFCNHjrQJCwubjc5pFkYw5vCAU9A57saoZm9paSn9YajSg1GF2oB56aWXhoaEhNzr4ODgVlhYeOPixYvfX7hw4ezWrVtbuq2t0yChlMW6U4iKispJTEyMwTHz7OzsLF1cXLyBo7xaCTark+7CYK+1I9eoCcErr6Pr1PJ8uyBxZsi7bo7hw4fbjx49egxGRyHI0m3kg25R3Pz666+nyJuo9GBUoTZQBg0aZDFq1KiBvr6+Q+B5msObDv/8889/WrFiBf1ZpDM6KoxaoHuDCxAq4FnSH3C2mG/yXzgW1tZcXmgNJPoMzt0p9xpDeOW5JrHIzs4O8vHxCXR2djbHaCINcYd/85vfRNavVunpqEJtoAQHB7vB4/RGw7YoKSkhwboJj5qeetPp48J0LZbEUhYj6Y9FLHeah11dXU33O8tLjUFHIZ2Yzk8eMLZv9+UKdAzknUviTN5wRy99sBdNnQhCb/lPxUZg1OBeWlo6vKyszBMjo1qMKK7+/PPP6uUOFQ2qUBsmdEkgoLy8vA9d98zKykrPyclJSklJoVveug0SyxrhBUbtxKqiosIBHYAVdQLIXwny2ZRSK4W0Q9fHAe3LXnQdCbc83y7ESx9EU3d9zJ49283BwSEUHZILOt2c6OjoiK1bt+bKq1VUVKE2RBwdHa0h1H7wwNwRqjBsvhUREUEeWKd5sm1BKUgdYdy4cW6BgYFDILhuEK3K3NxcuhOktW+B65Cw0q106Gw0x+iMyzp8aYZGGk3dRz127FhHLy+vPsgzvVskOz09/eb333+fJ69WUVGF2hBxdXW1cHZ2dsJomhp2Nd0VEBUVpdNr0wxdR5aH9rRII/wOdRZvvfVW/9DQ0Mm2trbe8KwzEhMTr3333XdNvnEOAkhvTKJ3cdClBnohkbymXZBOa4SaL4O0F0qTfDgqExMIv9aygUhbAycIuQW87lJ41tTpqo94q2hQhdoA8fHxMaU7IiBQ5KLVVFZWlsHzVL6HQ2dA0FisoU23bxcXN/fCvaZZsmRJPw8PjxkBAQEj6A9EHDexqKjo+IkTJ5q8XstCLS92yKNWwte/OwKVC4OOR6tQo1MyQ4dH0AND9JIlus+5M95brWIkqEJtgKDB17/02cSEXiREjdsEHlm31SWSQi85omkNRLo8Ojq6LQ9UmP7mN79x+uabbwY/DFxcXO7HaMERo4RCHPPEtGnT6AGNprxL6byCE9zhPwAZQfzbDV0Sok6M0keeflP3UWM9nUue9OqNfaguOzQyUTEuVKE2QJKTk2tJEDFLb32DTps5QODoFZ06b9wYpkuXGxCkqSxwrX1E0G748OFhw4YNe2jIkCFvjB8//nGMFkLLysrK09LSvrly5crWoUOHdtvjzqycnUFzh0JdQsOry1CWt9HxWCLKHqHlF4Oo9BhUoTZAMjIyyrMBZgvpuqarq2sABM8dy51y329bII+WVIaG+B5g+fLl9xQWFj4H7/opbQGC9TQFiNJzMTExq/773//+atSoUU+6ubkttbGxCYRIRxcUFHwWHh7++Zw5czQv4jdmaASSn5+fi7KsQBnRa1m9/Pz8SKxVVCRUoTZMynNzcxOg0ZkQNzNPT8+AsLAwH8T/8rSGjjA3N6drxNVIS527u7tf//79F2Po/ufy8vK1EOMGobKyci3i38P07xCldwMCAn4/cuTIx4OCgoZgVFB069ats+fOnfvfpk2b1i5atIje9tcS0r3JEH69u0xAl2AIpE+6hk7Bsonb/c6fP5+LfjcB21LH6xwYGBi6YsUKV3m1iooq1AZKLbzOBHt7+3RagDdq4+Li4t23b18Haa2OoWux8vVYEwixWWZmpkVKSoplcnKyLYKdPLVBnG1qaqpFUlISvfDIAvvYQJgssU8Z4nZh/dojR45sefXVV2/hsK0aHdA1YAKaKE07AjqLBn/+dRactqauUUdGRtJ98Ndx7hxbW1un0NDQUXPnzu0jr1ZRUYXaUNm7d29Renp6IjyxfLr8AG9s6KpVq8Yj0DVOnQLBlb6PSMP3mzdv7kX4L8LaxMTEtfThAprCW6b5tRDk9+Li4ijuHxDrnRDpUqS/tqSkJH/Pnj1n//a3vxnluy1QP/JcY+Lj4+mP0yiMOjLhdZuj4w2hL7RgVVPvOFHpYahCbcAcPHgw+saNGychcmUQypF33nnnwhEjRoTIq3UCDenhiZqSEOXl5SWfOXNmz/79+z9EB7IWnvXfIM5/oymW/07z8Jr/ien72HYt9v0v0h7hAEJCQibPmjVrEg7Z5leLkhfcGZ5wTf1TlZoDkYfdUah8MEH11N2mP1zrYxvj6+ubkpWVFYPOi17IRE9m3vXb3/52HFZZ1W+h0pNRhdqAgQcaXlFR8b2FhUUWGrpt//79p9rZ2c3APF2v1gkQIHq/hwlNkZby2NjYrPfee+/WihUrch955JEcZaD4p556Km/BggW5hw8fPn3lypXv4EnGu7u7hw0cOPDZ06dPT5UP3SpoNIFzy0sdhkRaahOUH4hlu9W/uroah/glYXTNmopJXmzEoEGD8o4ePXooJyfnJLzpXgEBAfQe7gX33Xefn7yJSg9GFWoDZvfu3Rn+/v7HysvLKRT5+fn5Q6znr169+gGIoq+8WbsIDg62/PHHH/uvX7/eH4tNXk6hW/JIjyBC9Meiuaurqy3S1Kpr5cuXLy97++23f6DLJcXFxaWenp7jIdgPbd68eQBGBi1/DqULQF66pE3InnWTDB48uOrFF188lZCQsB2edZqLi4sH4mahfBZ9+OGHNErqkHv/0ksv+Rw4cGAAylq9nGKAqEJt4GzcuDFl06ZNW5KSko7Rcr9+/UZNnDhxxbRp0x5cunQpiWy7+M9//jMKovmik5PTY2PGjAlClFahII+WLhlA4CjQV71N+vTp01q7qjt79mw8wqEbN26cKisru21paTndwcHh0cWLFwfI2zQL/ZnIlz1aEsOWkC91tNuL1obciUkvi2rOo5bJunDhwonw8PC9mZmZ2TY2Nn5hYWHPDR8+/Ik5c+YMxfr2dF4m8NaDR40a9QjE/8Xc3Fz6ormKgaEKtYGzZs2aCnhiJ0+cOLEJ3tIxevQ6JCRkzNSpUx9/5ZVXVm3btm0eGmirveuVK1fecebMmSfGjx//clBQ0DJ46YvnzZs3ZdWqVVq/YM53XQASIel2tNLS0rYIZu133313NiUlZXNFRUUMvOo+6GzmQ+zpq+ktfSQXOighCSIJtbSgB5AoU6BOhNNFl0Pk1U1RB+85+vz581+h49qdkZFRaGdn5zNgwIBH/vKXv6zasWPHIw8++GAYtmtVu0UZ9t2wYcMCdOa/Hjdu3JNYXorOcPKQIUPIHtS2b0ColWUcFD755JOHDh48uA6Ne09lZWWur6/vUG9v79/079//lS+//HLpoUOHJhUVFQ08fvx40Geffeb30Ucf+axbt8538+bNAadPn+5fXFwcdvTo0fuXLFnyFMTybUdHx/nW1tamEP58iLU5xF6rN2dhYSG9g5r0sb0aiSF5lpub276cnJzdVVVVBQEBAaHDhg2b89prr5H315yNNnjHM87foXdh02WczsLc3JweBZfS1JZyyc7OLnnrrbdOnDt3bnNcXNwOLCehDjzR+T6G8Nsnnnji8Z07d96Peh4SGxsb/MMPP/SluqSwZcuWvtgvCPsMRMc9df369csGDx78sr+//3MeHh4B9F8GOtEqTOljwZ06clDpWnT+gIRKl0F3fqQ4OzvHYr4aAhYIwXUgjwzCNzAwMHAiRGxyeXn5KHh4wzGsHoVtx0OApyPc7+TktBDifr+Xl9c4d3f3PhDN8piYmH0Qg40Q7MOYZsPTViqZKYbU9La7MdgvAGKfB0/wfHx8fAw85Da9GxudRzGG+ZnoWJzRSQx3cHCgdNfhuOFHjhwpkjdTYnX//feHYr9JEDMPpDkVQnQMHmS7PgT7+uuvB0Jc5yK4oPxy4X3uWrt2bYK8uk2gXDwwMhiBTm44dWQJCQlXMeK5cu3aNXqitCXq0NnSrXrxSEMehNWN6gRl4gGvuB887DHI7xSsG4eObRjWD7e3tx+HepyCQJ9mm9e3b995Pj4+U1HHoeg0TDMzM89GRER8mZycvCc8PDwlNTW1NR8rVlFR6SpWr1497MKFC7+FaG5OTEy8iEZaAhGXgJjW3bp1qxreWimEoxINlkRBWgcvrQ4NOS43N/c7iPRb//d//zcTh2vuUWbzl19+ed7PgI4RGRkZhyH6rwYOHNjup+q+++67ByD0Fyg9BQUFJfAM/7B3795gebUSR3iNj9NtgbT95cuXI/bt23evvK7NoGymV1RUZNKxqqur01EeM+RVbWbZsmWDMVr5AB1WdXp6etU333zz4cKFC4fIq1sNvOGA3bt3r0C9fIBwFIKfzfVFIK4OdVmCjrQMdV2HjliKR9nVYTkD648hvI8yXILDedUfVcXQUD1qI+TYsWMZ8MYuQvQi0GBT4EHnwaurhOdVjfgyeFyl8ForEErgcdM7SQsgJrEQ2mMnT5784eDBg58GBQXtXLJkSRzWNed5mUycONEdw2tfV1dXK/rA7tWrV09CMG/m5+e3y2PD+UshThXwRB2RXgt4jRUQ0Kivv/46Sd5ExHzOnDlegwYNCkAezSHYl7Htz/Cok+X1beL3v/+9G7zpMDoWFqPhre7529/+llq/tm1glGGPDssHXrULyj4zKSnpTHR0dPj169fb9JIplGkB0nHt3LlzZ+CNJ6E8aP9SFE0NPOUKqj+qS4yIyuFVFyH9xdgmBZ30GXRydE/7lqNHj25C53sBdtG+98+qqKh0LWjIbh999NEgDHfvKikpmYUh/f1oyIsh4EsxvwDhAYT74GVP+fzzz4fdfffdbbkHuze8d7czZ86MwLFnRkVFjX/zzTdp/47cWmf6wAMPeMMbvAve7VwI27Q9e/Y09Ti1GTxqbwg0bTv7ypUrYw4cONBubx5l4gJRvAvlMRvTSbQsr2oz8KhtN2zYEAKvfFp2dva0b7/9NoTi5NXtxe7Xv/51f4jvWIySZiKdcxDmU13K9Tkf4X50VjPghY9aunQp3a3T0XOqdDu9ev1/SjZfpkgas/oAAAAASUVORK5CYII=;" parent="1" vertex="1">
          <mxGeometry x="50" y="45" width="124.29" height="80" as="geometry" />
        </mxCell>
        <mxCell id="Ts-MEBF0U70ZsIu4FJop-9" value="Pepito Perez" style="text;html=1;strokeColor=none;fillColor=none;align=center;verticalAlign=middle;whiteSpace=wrap;rounded=0;fontColor=#FFFFFF;fontSize=19;" parent="1" vertex="1">
          <mxGeometry x="510" y="60" width="130" height="50" as="geometry" />
        </mxCell>
        <mxCell id="Ts-MEBF0U70ZsIu4FJop-12" value="" style="shape=cross;whiteSpace=wrap;html=1;rotation=45;" parent="1" vertex="1">
          <mxGeometry x="690" y="45" width="50" height="50" as="geometry" />
        </mxCell>
        <mxCell id="Ts-MEBF0U70ZsIu4FJop-303" value="Buscar" style="text;html=1;strokeColor=none;fillColor=none;align=center;verticalAlign=middle;whiteSpace=wrap;rounded=0;fontColor=#FFFFFF;fontSize=22;" parent="1" vertex="1">
          <mxGeometry x="190" y="60" width="80" height="30" as="geometry" />
        </mxCell>
        <mxCell id="Ts-MEBF0U70ZsIu4FJop-304" value="Mis Criticas" style="text;html=1;strokeColor=none;fillColor=none;align=center;verticalAlign=middle;whiteSpace=wrap;rounded=0;fontColor=#FFFFFF;fontSize=22;" parent="1" vertex="1">
          <mxGeometry x="280" y="60" width="120" height="30" as="geometry" />
        </mxCell>
        <mxCell id="Ts-MEBF0U70ZsIu4FJop-305" style="edgeStyle=orthogonalEdgeStyle;rounded=0;orthogonalLoop=1;jettySize=auto;html=1;exitX=0.5;exitY=1;exitDx=0;exitDy=0;" parent="1" source="Ts-MEBF0U70ZsIu4FJop-304" target="Ts-MEBF0U70ZsIu4FJop-304" edge="1">
          <mxGeometry relative="1" as="geometry" />
        </mxCell>
        <mxCell id="Ts-MEBF0U70ZsIu4FJop-313" style="edgeStyle=orthogonalEdgeStyle;rounded=0;orthogonalLoop=1;jettySize=auto;html=1;exitX=0.75;exitY=0;exitDx=0;exitDy=0;entryX=0.641;entryY=-0.176;entryDx=0;entryDy=0;entryPerimeter=0;" parent="1" edge="1">
          <mxGeometry relative="1" as="geometry">
            <mxPoint x="620" y="85" as="sourcePoint" />
            <mxPoint x="606.9200000000001" y="79.72000000000003" as="targetPoint" />
          </mxGeometry>
        </mxCell>
        <mxCell id="Ts-MEBF0U70ZsIu4FJop-314" value="" style="verticalLabelPosition=bottom;shadow=0;dashed=0;align=center;html=1;verticalAlign=top;strokeWidth=1;shape=mxgraph.mockup.containers.userFemale;strokeColor=#666666;strokeColor2=#008cff;" parent="1" vertex="1">
          <mxGeometry x="640" y="55" width="40" height="35" as="geometry" />
        </mxCell>
        <mxCell id="Ts-MEBF0U70ZsIu4FJop-405" value="" style="line;strokeWidth=4;html=1;perimeter=backbonePerimeter;points=[];outlineConnect=0;strokeColor=#FFFFFF;" parent="1" vertex="1">
          <mxGeometry x="190" y="85" width="80" height="10" as="geometry" />
        </mxCell>
        <mxCell id="F23hNo0Ny0hHxKqOBlzi-27" value="" style="rounded=0;whiteSpace=wrap;html=1;" parent="1" vertex="1">
          <mxGeometry x="160" y="60" width="480" height="560" as="geometry" />
        </mxCell>
        <mxCell id="F23hNo0Ny0hHxKqOBlzi-29" value="Juego 1" style="text;html=1;strokeColor=none;fillColor=none;align=center;verticalAlign=middle;whiteSpace=wrap;rounded=0;fontSize=27;fontStyle=1" parent="1" vertex="1">
          <mxGeometry x="330" y="75" width="150" height="30" as="geometry" />
        </mxCell>
        <mxCell id="F23hNo0Ny0hHxKqOBlzi-30" value="PS4" style="rounded=1;whiteSpace=wrap;html=1;fontColor=#808080;" parent="1" vertex="1">
          <mxGeometry x="215" y="210" width="380" height="45" as="geometry" />
        </mxCell>
        <mxCell id="F23hNo0Ny0hHxKqOBlzi-31" value="" style="triangle;whiteSpace=wrap;html=1;direction=south;" parent="1" vertex="1">
          <mxGeometry x="550" y="217.5" width="30" height="30" as="geometry" />
        </mxCell>
        <mxCell id="F23hNo0Ny0hHxKqOBlzi-32" value="Lorem ipsum dolor sit amet, consectetur adipiscing elit, sed do eiusmod &lt;br/&gt;tempor incididunt ut labore et dolore magna aliqua. Ut enim ad minim &lt;br/&gt;veniam, quis nostrud exercitation ullamco laboris nisi ut aliquip ex ea &lt;br/&gt;commodo consequat. Duis aute irure dolor in reprehenderit in voluptate &lt;br/&gt;velit esse cillum dolore eu fugiat nulla pariatur. Excepteur sint &lt;br/&gt;occaecat cupidatat non proident, sunt in culpa qui officia deserunt &lt;br/&gt;mollit anim id est laborum." style="rounded=0;whiteSpace=wrap;html=1;" parent="1" vertex="1">
          <mxGeometry x="200" y="280" width="400" height="240" as="geometry" />
        </mxCell>
        <mxCell id="F23hNo0Ny0hHxKqOBlzi-33" value="Eliminar" style="rounded=1;whiteSpace=wrap;html=1;fillColor=#f8cecc;gradientColor=#ea6b66;strokeColor=#b85450;" parent="1" vertex="1">
          <mxGeometry x="370" y="540" width="120" height="60" as="geometry" />
        </mxCell>
        <mxCell id="F23hNo0Ny0hHxKqOBlzi-34" value="" style="rounded=0;whiteSpace=wrap;html=1;fillColor=#f8cecc;gradientColor=#ea6b66;strokeColor=#b85450;" parent="1" vertex="1">
          <mxGeometry x="190" y="130" width="30" height="35" as="geometry" />
        </mxCell>
        <mxCell id="F23hNo0Ny0hHxKqOBlzi-35" value="" style="rounded=0;whiteSpace=wrap;html=1;fillColor=#f8cecc;gradientColor=#ea6b66;strokeColor=#b85450;" parent="1" vertex="1">
          <mxGeometry x="220" y="130" width="30" height="35" as="geometry" />
        </mxCell>
        <mxCell id="F23hNo0Ny0hHxKqOBlzi-36" value="" style="rounded=0;whiteSpace=wrap;html=1;" parent="1" vertex="1">
          <mxGeometry x="280" y="130" width="30" height="35" as="geometry" />
        </mxCell>
        <mxCell id="F23hNo0Ny0hHxKqOBlzi-37" value="" style="rounded=0;whiteSpace=wrap;html=1;" parent="1" vertex="1">
          <mxGeometry x="250" y="130" width="30" height="35" as="geometry" />
        </mxCell>
        <mxCell id="F23hNo0Ny0hHxKqOBlzi-38" value="" style="rounded=0;whiteSpace=wrap;html=1;" parent="1" vertex="1">
          <mxGeometry x="399" y="130" width="30" height="35" as="geometry" />
        </mxCell>
        <mxCell id="F23hNo0Ny0hHxKqOBlzi-39" value="" style="rounded=0;whiteSpace=wrap;html=1;" parent="1" vertex="1">
          <mxGeometry x="340" y="130" width="30" height="35" as="geometry" />
        </mxCell>
        <mxCell id="F23hNo0Ny0hHxKqOBlzi-40" value="" style="rounded=0;whiteSpace=wrap;html=1;" parent="1" vertex="1">
          <mxGeometry x="370" y="130" width="30" height="35" as="geometry" />
        </mxCell>
        <mxCell id="F23hNo0Ny0hHxKqOBlzi-41" value="" style="rounded=0;whiteSpace=wrap;html=1;" parent="1" vertex="1">
          <mxGeometry x="310" y="130" width="30" height="35" as="geometry" />
        </mxCell>
        <mxCell id="F23hNo0Ny0hHxKqOBlzi-42" value="3" style="ellipse;whiteSpace=wrap;html=1;fillColor=#f8cecc;gradientColor=#ea6b66;strokeColor=#b85450;" parent="1" vertex="1">
          <mxGeometry x="505" y="112.5" width="70" height="70" as="geometry" />
        </mxCell>
        <mxCell id="NWuWk62jZOK8hMIF2QM6-2" value="" style="shape=cross;whiteSpace=wrap;html=1;rotation=45;fillColor=#000000;" vertex="1" parent="1">
          <mxGeometry x="580" y="65" width="50" height="50" as="geometry" />
        </mxCell>
        <mxCell id="NWuWk62jZOK8hMIF2QM6-3" value="Editar" style="rounded=1;whiteSpace=wrap;html=1;fillColor=#dae8fc;gradientColor=#7ea6e0;strokeColor=#6c8ebf;" vertex="1" parent="1">
          <mxGeometry x="505" y="540" width="120" height="60" as="geometry" />
        </mxCell>
      </root>
    </mxGraphModel>
  </diagram>
</mxfile>
